VAPOR_TET 1
343 1357
0 0 0
0 0 0.18148486429892488
0 0 0.3413165122362124
0 0 0.50081113468968763
0 0 0.66404859638412761
0 0 0.83136466013257426
0 0 1
0 0.17963101706120085 0
0 0.16455342240492876 0.16439515617693615
0 0.15956267446700115 0.33534085180890932
0 0.16710174418906779 0.49919291053878212
0 0.15209128642489203 0.67320906235027278
0 0.16937676943970478 0.80966781991459769
0 0.15309303669944807 1
0 0.34525874609126095 0
0 0.3239524694807272 0.16849815564224382
0 0.31658930483908437 0.33405158519506972
0 0.34345345801720661 0.49968333938210108
0 0.31676233200581333 0.66858387806154973
0 0.3699425856520227 0.80544577463883615
0 0.32330011403534714 1
0 0.51473719481205904 0
0 0.47650584714075217 0.16688404089325962
0 0.48999871764964631 0.34149957281873689
0 0.51548949107687536 0.50862524535096221
0 0.48447009361864396 0.6739290561336676
0 0.51964331956268672 0.83875921009539511
0 0.50201230350195214 1
0 0.67388023590507373 0
0 0.63869275997330521 0.16446164958090725
0 0.66241285563746355 0.32340942391404837
0 0.67751151015612798 0.4813664157644777
0 0.65874861426965514 0.65727626528106209
0 0.6807819375055455 0.82764994568535832
0 0.65841748767151742 1
0 0.83506501460758531 0
0 0.8106561951916631 0.16458932121843389
0 0.83339373668198669 0.33252508467778841
0 0.83306003117284444 0.50750083476074193
0 0.82992439546227081 0.68074790854307954
0 0.84617932109083915 0.84965038120120084
0 0.82480988304768055 1
0 1 0
0 1 0.17383428805179799
0 1 0.33852048156268172
0 1 0.49792901102140091
0 1 0.66947096605153866
0 1 0.83466629516181234
0 1 1
0.15455311182539164 0 0
0.17514139858991443 0 0.15909657256382492
0.16004002309421028 0 0.32159330681732928
0.17490310975307938 0 0.49140050774120447
0.15889824872594641 0 0.66170990844098465
0.17577043632263334 0 0.83456192910778881
0.16496402843397717 0 1
0.16938931835016649 0.15477644025539605 0
0.22918234681271035 0.11238840716184002 0.16268795921842666
0.20696221313415294 0.22420995073010141 0.29076443795465817
0.15955193766000814 0.19118349063382037 0.43257858071063776
0.14183778283883353 0.15026171037308733 0.66498372379193871
0.1053580475480016 0.14801534597338262 0.87327075544681965
0.15663577244438809 0.17117078502191907 1
0.16974485257094374 0.32495844715828337 0
0.15293285009844099 0.25543319237003553 0.11796960929923089
0.15900974040136862 0.37453829224233198 0.28378592023762494
0.15782998547764457 0.39352890643240362 0.45023143069785154
0.14945382442507002 0.33639047531678773 0.58821826359686724
0.17430032302128726 0.28781288625649376 0.82689097019281288
0.16460790566071848 0.33595155581426445 1
0.17689177922240049 0.51817749424797488 0
0.13535185592635884 0.49464921538440526 0.16279647650799414
0.17229468692579303 0.54148841515543988 0.38510521063199671
0.16125817068562726 0.54819188047239031 0.57560165935683882
0.15018418317089466 0.43624030579678474 0.73338040403842564
0.12699239364870099 0.50322956334703828 0.89257982010862369
0.15869663709003914 0.49973628689939509 1
0.17010012385364173 0.65880880718819901 0
0.14361297066997966 0.72646717029411056 0.16794390578897669
0.17884668706184226 0.65369121928135165 0.27740417634520625
0.18338013465907765 0.70832311082000987 0.45059153694804516
0.14479755517875945 0.72749629664598292 0.6406458403436962
0.16331535550108703 0.60575481934318431 0.76921706885614582
0.16252570942379382 0.66349591996750013 1
0.17584349973182631 0.83047823173666635 0
0.11058935957911596 0.88827748394794714 0.18457335065158745
0.16535985026372127 0.85473875157997903 0.38272875664699924
0.24059230252009534 0.85129814675321314 0.56296409444567286
0.15398886379840973 0.8898547886675251 0.69670810527672111
0.16380227122082822 0.76919425137650665 0.84712359214575605
0.16488049010359571 0.83564134635737264 1
0.16178866988711788 1 0
0.17559611534847902 1 0.16919970774410822
0.16367890509589444 1 0.33214487561864336
0.16696168536623981 1 0.50206028670883485
0.17183810162127844 1 0.6699231198825577
0.1534256786425095 1 0.84046007641187936
0.18708064631738541 1 1
0.31961007550879711 0 0
0.33926487203230021 0 0.17734625813960736
0.32775226158346338 0 0.34124457739306813
0.34831562516450348 0 0.50431400670032267
0.3163199713363864 0 0.66858129962566382
0.3463701236248124 0 0.83305767856262236
0.32894349700958431 0 1
0.33858020150957968 0.16057886696076329 0
0.36539176256586609 0.22998026941039668 0.1618923583352489
0.37168772949541085 0.14901930876229658 0.32947758870979504
0.27329888657673579 0.15410694942155412 0.52122363920040871
0.38548603638964002 0.14368594073780194 0.66021301392423093
0.27340202072339509 0.12836820926846956 0.82912176129960435
0.31648268535170521 0.17196966374233671 1
0.31561046140835375 0.32410471061990981 0
0.31730398897481843 0.385583071400185 0.16271729444681621
0.31595260222735566 0.32712371874841373 0.36907054437163067
0.33025718724299669 0.31780917396169389 0.5405886387111124
0.2756693246488694 0.26355716319030814 0.69891423278063014
0.39063138863474867 0.28400121019138186 0.84200245496444037
0.34324254944014998 0.33965375828193967 1
0.33435581594156988 0.49740282125021795 0
0.27033325074653719 0.55682294047688219 0.12731497479676551
0.32313518279788062 0.50393354928555678 0.28442327102957282
0.33037833193344057 0.50558852719341263 0.49816944243428618
0.31092691653809795 0.41947211860661732 0.67869209800699093
0.27780269060480728 0.44047752802190832 0.84728025015453712
0.31983297188024118 0.5028564377999305 1
0.3303777212134078 0.66355190102872641 0
0.34374210657315352 0.65947145502553672 0.15470673223693487
0.35245530833179201 0.66768574696692307 0.36465078324081451
0.32083539927302868 0.6945490330665699 0.56144805465262804
0.3196412474836442 0.57963896771779111 0.68670462110364006
0.32547175002470163 0.63785911734548517 0.86767267160509598
0.31701094761667609 0.66556424153001081 1
0.34820661438263001 0.83405328477184437 0
0.26344289605170224 0.83682387157792537 0.11537597816794863
0.29808534858372399 0.82137684349683671 0.27267868568520826
0.38027961656475701 0.82968754280387447 0.43887969306861413
0.30738433393789699 0.76689453900192317 0.72619810991755429
0.33983934233357133 0.87397890844276549 0.8414595246374359
0.33158004976229283 0.8323373380718001 1
0.31774769441226802 1 0
0.35385247687821231 1 0.16529025403795822
0.33221176294596011 1 0.33570848885783233
0.33055610838002875 1 0.49883158291045276
0.34188822744080732 1 0.65552892846558108
0.3192881835173923 1 0.83150547396282981
0.36171590003289367 1 1
0.48461948644587094 0 0
0.49437424830471866 0 0.17756638351710197
0.50347000461287217 0 0.34825924687037774
0.51433633112236132 0 0.51367108055772759
0.48893911602263168 0 0.68071460444254683
0.51264317201216425 0 0.83920990210696578
0.48507505340553292 0 1
0.51075273054334314 0.18118532790705608 0
0.50222649304247302 0.1204947796182876 0.16911682234729283
0.57325884138222849 0.16444882688375373 0.36192328848719502
0.4564688124601009 0.1838980892203225 0.4840241312192704
0.55681868752533303 0.18482754307525992 0.63072592366134383
0.5017034665762593 0.14983996061143859 0.80118819863960167
0.48647243426030667 0.1664775601633505 1
0.48080603997071319 0.35560212517565548 0
0.53274828694399423 0.30203230076098347 0.16630164931527061
0.4776087849292136 0.3187548055737498 0.3058331180130715
0.49479461266864522 0.35860900040218968 0.48747540952252316
0.46590260377710158 0.31582992031618146 0.68726588520666987
0.57133384622872219 0.27512439003500172 0.83338851976901485
0.51669736589200987 0.32979119074999924 1
0.51064715236216207 0.52318999918591447 0
0.49592803617420322 0.4879161250259097 0.17176328237113486
0.4661543430198325 0.50949683519148714 0.3659108500545285
0.57197509952820735 0.50921114254627153 0.4954671112902761
0.47413480141181374 0.4758570005275789 0.6315796199768795
0.45503272505762504 0.49226930590209445 0.83346184300308557
0.48664140567437858 0.50332337075000577 1
0.48540030467815115 0.68516755237608507 0
0.47801585547284092 0.64883122230514789 0.21969429785847974
0.53864718938084299 0.69657850822149647 0.37661732456175845
0.4748667097508763 0.65688882938697624 0.53718600260117055
0.49669155177057112 0.66374680254811347 0.70455487780229376
0.50024666364812054 0.73026052723326462 0.851926378270077
0.48695577098607012 0.66909389222751203 1
0.51501959822612919 0.84639788773565872 0
0.44834692483284599 0.82243171037462359 0.13220896162606929
0.49453084736653874 0.84167522495384628 0.28181738294734848
0.56377100969435978 0.84351168259470843 0.44836269948932223
0.4436378545195222 0.83673751150175435 0.63856409346726917
0.52694780566685318 0.88688882334388985 0.85550621197353138
0.49817889123188142 0.8351944177974775 1
0.49022874330850552 1 0
0.51578323759666878 1 0.17777242298838439
0.50043777832869696 1 0.35039658769696752
0.49921140796840646 1 0.5156867779297295
0.50379456188815352 1 0.68259890113930444
0.4876501803407699 1 0.84280975525744017
0.51919805217224346 1 1
0.65251656316921236 0 0
0.65117082754817857 0 0.1577667740043002
0.6701176633043785 0 0.31750194105177842
0.67604560750426035 0 0.48567381968747586
0.6652536162434034 0 0.65964983013730338
0.65906979708641744 0 0.83372035715990123
0.65827304740402048 0 1
0.68487648272787405 0.16356783519218523 0
0.61869858952247403 0.21304336234272789 0.17254248561217023
0.74380725955912186 0.1517803596338318 0.37383082469927953
0.68396284894201398 0.14993954317215952 0.5463898232406178
0.70658261265195832 0.17012924116839123 0.73624757242055205
0.72773676905847418 0.1715822446278481 0.88765091127064477
0.65428233748245856 0.16327883190340672 1
0.64855567634846412 0.32156164838495288 0
0.67526760664534924 0.37642607408149764 0.12644767288333089
0.70035628124528349 0.30139424328633385 0.28541519619313749
0.66109984447943126 0.3114956987664404 0.46925057180711149
0.64443353739693621 0.35980810431747207 0.64565949418313695
0.73488445412019121 0.36246600635953957 0.83605610659437124
0.68172296662290854 0.32134368558774823 1
0.68269797749099237 0.4872243149306752 0
0.69518909074165469 0.5227566372307284 0.18109680215378757
0.63460630894961523 0.43988482828734637 0.32739158131839907
0.73253932244811237 0.50865728238091124 0.50902772077233172
0.62817731933793908 0.54432031978716044 0.67170937554882726
0.59864458008678478 0.43238311397152862 0.81358981670968811
0.65691821083657631 0.48595490605402381 1
0.65245795161905862 0.65882733087005629 0
0.61129089807879144 0.7031044958092193 0.16165033394466788
0.66489559699723677 0.60466539289112453 0.34136491437234678
0.66751431671708439 0.6858381807563767 0.53255693864320985
0.6739734549634494 0.70286958105850617 0.72316610068081177
0.66499651956739891 0.58380077876445347 0.85041883508430527
0.65989395225323133 0.64766467906611092 1
0.67647549299135257 0.83118667249430356 0
0.65517151631614978 0.88155604815139854 0.14903117421407702
0.6884956831231811 0.78696823332096466 0.32545278474393768
0.61130068783346203 0.8354146578307442 0.59234905510419877
0.63671240127354889 0.85327266410741109 0.73825639643076268
0.72007942775595402 0.80366715730108818 0.85286804359570167
0.66425775784637198 0.82748336933891509 1
0.66021603533169992 1 0
0.67551249832035642 1 0.15365721723102405
0.66901860418169412 1 0.31831459226930486
0.67161959332619003 1 0.47658714959187309
0.65950718048754553 1 0.64308692605003248
0.66593930931059431 1 0.82639476708767101
0.67210080463396504 1 1
0.82677026120716923 0 0
0.8223912321816983 0 0.16748770072258704
0.83207636058344847 0 0.33297643029119783
0.83515790000989287 0 0.50283260897129956
0.8357779570723799 0 0.66777490237506298
0.8275258573708455 0 0.83514519893826211
0.83395029986589209 0 1
0.8484365323444325 0.16123431386956316 0
0.77304926565169474 0.16352339255057086 0.15532521657747134
0.86238482100057445 0.16682687712651051 0.31008612844408912
0.86175156937834341 0.22222295250816476 0.47989128491581445
0.86023758291766661 0.12865393796869989 0.62804004322734663
0.89004995483426808 0.10778850435616685 0.82515902626101456
0.82497366505515068 0.16728661281617158 1
0.82193992602253863 0.32164039293343144 0
0.85782314341159416 0.34378330833633408 0.20580821109185099
0.82498002029902229 0.37900542516560287 0.37593573751347947
0.84536569542972284 0.38884859385744514 0.55800691981301764
0.80983138300441593 0.27447092739555118 0.6451202342706136
0.87274835902490389 0.26971258115274183 0.81792976156452835
0.83822328148372416 0.33205459441110974 1
0.84797312975469885 0.48309699349978841 0
0.86227799675938699 0.4932018557983634 0.11635045084700704
0.83076481101985167 0.52590232739865539 0.34817707507294071
0.88249794380908009 0.5428982587569019 0.52873720142752334
0.81430209444362178 0.45140719648677896 0.71420562756398254
0.85713608281657583 0.50330040684848709 0.87105636816926801
0.83174050496249619 0.49841005885351058 1
0.82250357511631522 0.6527167261227792 0
0.80065854931741132 0.64057516975258311 0.19484821045317802
0.86321455386480883 0.7410572326914957 0.32872054972481896
0.8377399681867469 0.68652857747751062 0.49461539964922724
0.8233670549865254 0.60660049605065147 0.68775359411207027
0.85695715858953558 0.71576119977748354 0.82259458351993309
0.83085268465649476 0.66901602250994741 1
0.83489569118883011 0.82791995902187943 0
0.81533145929018536 0.77229327373737766 0.13264062303654681
0.8299174759455098 0.88391622476179676 0.26733625795763788
0.77952453600344696 0.8629674666261421 0.47162792008959481
0.81686408381173414 0.80826302281290652 0.64550040419349808
0.8393743780970766 0.8938222636088804 0.83034534412030059
0.83094269272766863 0.83181710656073371 1
0.82384311262406429 1 0
0.83665370207454171 1 0.16719287616278519
0.83594982188064992 1 0.34054044605295636
0.83383428772336798 1 0.51554879196238157
0.81320517719185059 1 0.67903759848013989
0.83222890193516685 1 0.8371691248083184
0.83495100140401579 1 1
1 0 0
1 0 0.18339565446684342
1 0 0.34638410783693985
1 0 0.51597643860671194
1 0 0.67159927255425944
1 0 0.83352188758229306
1 0 1
1 0.16344163793629379 0
1 0.1623941098709247 0.14064373553794182
1 0.16837781630418902 0.29929860944706688
1 0.16482839974836078 0.47389071850649384
1 0.16425564232276335 0.66173124566779873
1 0.17436572617869162 0.83426653537391715
1 0.16908378568760937 1
1 0.33026837352512317 0
1 0.3306907233765396 0.16849668103748727
1 0.33632413995360988 0.33310125861760204
1 0.32101880327043453 0.50109600544808164
1 0.33180231234097285 0.66909917640628225
1 0.34342013711587488 0.83192040319606875
1 0.3401079148258821 1
1 0.50597902322950139 0
1 0.50048496990016944 0.16566215800627171
1 0.51496582655767742 0.36885200884975516
1 0.48396534422321869 0.49519161390464872
1 0.49777000173333252 0.6659049684868531
1 0.49229463067841978 0.83595897177076728
1 0.51545741876708939 1
1 0.67892783512036103 0
1 0.66737358934191915 0.16722450960093443
1 0.67287233540821512 0.34970470138974463
1 0.64868563172741567 0.49597910375775756
1 0.66698187712996571 0.65781354768982514
1 0.6538553086142127 0.83042230234796155
1 0.67504393117835904 1
1 0.83728451301396789 0
1 0.83631738638756792 0.15824635688273686
1 0.83372153188099396 0.32005229421323256
1 0.82414929733512654 0.48576235732433737
1 0.83166328484048291 0.64901712101269804
1 0.82508264699960221 0.82709027651781752
1 0.83158408527080752 1
1 1 0
1 1 0.16874737051346511
1 1 0.33852449036519794
1 1 0.51488524381918011
1 1 0.67740407124307622
1 1 0.83741651435436726
1 1 1
38 94 86 45
38 94 86 87
13 61 55 6
5 13 61 6
5 61 55 6
185 191 136 192
241 185 234 192
241 185 191 192
241 185 191 240
241 185 240 233
242 241 234 192
32 73 25 82
32 26 33 82
32 26 25 82
32 73 25 24
88 94 46 45
88 38 46 45
88 38 94 45
88 38 94 87
47 88 96 46
80 136 86 87
80 38 86 87
267 308 316 315
71 65 64 15
108 60 109 102
129 80 136 87
131 125 132 174
131 125 173 174
131 179 130 173
131 125 83 132
118 167 173 174
118 125 173 174
53 108 52 102
53 108 60 102
53 108 60 52
53 60 52 3
10 60 52 3
184 185 191 136
184 142 191 136
184 185 240 233
184 185 191 240
283 241 185 233
283 241 185 234
283 241 240 233
283 242 241 234
95 88 94 46
95 88 96 46
95 88 94 87
81 88 38 87
81 80 38 87
81 32 73 82
81 32 33 82
81 129 80 87
81 129 80 73
81 130 73 82
81 129 130 73
145 95 88 96
90 97 96 48
40 47 96 48
40 90 41 48
40 90 96 48
40 47 88 96
232 238 287 231
232 238 239 287
232 184 240 233
280 232 287 231
280 232 281 231
323 267 316 315
323 267 322 315
31 32 73 24
31 81 32 38
31 81 80 38
31 81 32 73
31 81 80 73
135 80 136 86
135 142 136 86
135 184 142 136
122 129 80 73
122 130 73 123
122 129 130 73
93 142 94 86
93 94 86 45
93 135 142 86
93 135 142 92
182 232 238 189
182 232 238 231
177 184 185 136
177 184 185 233
219 226 220 171
309 267 308 316
155 204 197 203
155 196 197 147
155 196 197 203
255 262 311 263
213 255 206 263
213 255 262 263
213 219 163 212
213 219 164 163
213 219 220 171
213 219 164 171
261 311 310 318
261 262 311 318
261 317 310 318
261 255 311 310
261 255 262 311
261 213 255 262
261 213 262 220
261 213 219 212
261 213 219 220
261 219 218 212
276 226 275 233
276 283 275 233
160 104 103 153
160 104 103 111
312 255 311 263
312 270 319 313
312 262 311 263
312 270 262 263
312 270 319 262
312 262 311 318
312 319 262 318
14 7 64 15
101 108 109 102
101 108 52 102
101 108 100 52
115 122 164 114
58 65 64 15
279 230 229 236
279 237 286 236
279 230 237 236
180 179 229 173
180 131 179 173
180 131 139 132
180 230 229 236
180 230 237 236
124 118 125 173
124 131 125 173
124 130 173 123
124 131 130 173
124 131 130 82
214 213 220 171
214 213 164 171
214 158 165 164
214 213 158 164
214 158 165 166
214 213 262 263
214 213 262 220
214 270 262 263
214 270 262 220
214 213 206 263
214 213 158 206
200 199 206 150
200 158 206 150
62 13 61 55
54 60 5 61
54 53 60 5
54 5 61 55
11 10 60 3
11 10 60 18
289 283 241 240
144 95 94 87
144 95 88 87
144 145 95 88
89 81 33 82
89 131 83 82
89 40 88 96
89 40 90 96
89 83 33 82
89 90 83 132
89 131 83 132
89 90 139 132
89 131 139 132
89 40 41 33
89 40 90 41
89 90 83 41
89 34 41 33
89 34 83 41
89 34 83 33
22 71 65 15
22 23 71 65
22 14 71 21
22 14 71 15
16 58 65 15
16 22 65 15
16 22 23 65
193 242 234 192
193 235 242 234
138 145 97 96
138 90 97 96
138 89 90 96
138 90 97 139
138 145 88 96
138 89 88 96
138 89 90 139
138 146 97 139
138 146 145 97
138 146 188 139
138 144 145 88
138 180 188 139
138 180 131 139
138 89 131 139
138 193 144 145
39 47 88 46
39 40 47 88
39 88 38 46
39 81 32 38
39 81 88 38
39 81 32 33
39 89 81 88
39 89 40 88
39 89 81 33
39 89 40 33
190 182 183 189
190 182 232 189
190 182 232 183
190 232 238 189
190 232 238 239
190 232 184 183
190 232 239 240
190 232 184 240
190 184 191 240
288 232 239 287
288 280 232 287
288 280 232 281
288 280 287 336
330 288 337 336
330 288 280 281
330 323 322 281
330 323 275 331
330 323 275 281
324 323 275 331
274 323 275 281
274 324 323 275
274 323 267 316
274 275 281 233
274 226 275 233
134 91 140 84
134 91 140 92
134 91 92 84
134 127 135 183
72 122 80 73
72 23 71 65
72 31 73 24
72 31 80 73
72 31 23 24
72 31 23 30
72 31 80 30
178 129 179 130
178 122 129 130
178 177 185 136
44 93 86 45
225 224 175 168
225 224 218 168
225 224 182 175
225 182 175 183
225 182 232 183
225 177 226 233
225 274 226 233
225 274 226 218
225 274 224 218
225 224 182 231
225 182 232 231
225 177 184 233
225 232 184 233
225 232 184 183
225 232 281 231
225 224 281 231
225 232 281 233
225 274 281 233
225 274 224 281
217 224 218 168
121 72 122 114
121 72 65 114
121 72 71 65
148 155 197 147
107 101 108 100
107 58 57 100
162 155 204 163
162 204 163 212
162 219 163 212
284 283 242 291
284 283 242 234
284 235 242 291
284 235 242 234
332 289 283 331
332 289 338 339
332 289 338 331
332 284 276 283
332 284 276 333
332 283 275 331
332 276 283 275
332 324 275 331
332 324 276 325
332 324 276 275
285 335 293 286
285 292 341 293
285 341 293 342
285 335 293 342
285 335 341 342
285 340 292 341
285 284 333 291
285 340 292 291
285 340 333 291
285 284 235 236
285 284 235 291
244 285 292 293
244 237 286 236
244 285 286 236
244 285 293 286
304 255 311 310
248 200 199 206
268 261 317 318
268 276 226 220
268 219 226 220
268 261 219 220
268 324 317 325
268 324 276 325
268 276 226 275
268 219 226 218
268 261 219 218
268 274 226 275
268 274 226 218
268 324 276 275
268 274 324 275
268 274 267 218
268 274 267 316
268 324 317 316
268 261 317 310
268 324 323 316
268 274 323 316
268 274 324 323
260 309 310 316
260 261 218 212
260 309 267 316
260 268 261 310
260 268 267 218
260 268 261 218
260 268 267 316
260 317 310 316
260 268 317 316
260 268 317 310
269 319 262 318
269 319 325 318
269 270 319 262
269 270 319 277
269 276 277 220
269 270 262 220
269 270 277 220
269 268 276 220
269 261 262 318
269 268 261 318
269 261 262 220
269 268 261 220
269 268 276 325
269 317 325 318
269 268 317 318
269 268 317 325
227 276 277 220
227 276 226 220
227 178 179 234
227 178 185 234
227 178 177 185
227 178 177 171
227 284 276 277
227 283 185 234
227 177 185 233
227 226 220 171
227 177 226 171
227 177 226 233
227 276 226 233
227 284 283 234
227 284 276 283
227 283 185 233
227 276 283 233
326 269 276 325
326 269 276 277
326 332 276 325
326 332 276 333
326 284 276 277
326 284 276 333
326 269 319 325
326 269 319 277
209 208 166 216
209 166 167 216
209 160 166 167
305 312 255 263
305 312 255 311
305 304 255 311
207 214 206 263
207 214 158 206
207 200 158 206
207 214 158 166
222 166 167 216
222 166 167 173
222 229 173 174
222 167 173 174
222 165 166 173
222 214 165 166
320 270 319 313
320 270 319 277
110 54 104 103
110 104 103 111
110 54 60 61
110 103 109 102
110 60 109 102
110 62 55 111
110 62 61 55
110 54 61 55
110 104 55 111
110 54 104 55
110 54 103 102
110 54 53 102
110 53 60 102
110 54 53 60
63 71 64 15
63 14 64 15
63 14 71 15
63 14 7 64
66 58 65 114
66 72 65 114
66 115 122 114
66 72 122 114
66 72 23 65
66 72 122 73
66 72 73 24
66 16 23 17
66 16 23 65
66 23 17 24
66 72 23 24
51 58 57 100
51 58 57 9
56 105 57 64
56 63 7 64
154 105 155 147
154 155 196 147
154 155 196 203
154 155 204 203
154 162 155 204
181 180 188 237
181 180 230 237
181 230 229 174
181 180 230 229
181 131 132 174
181 180 131 132
181 180 139 132
181 180 188 139
181 229 173 174
181 180 229 173
181 131 173 174
181 180 131 173
117 124 118 173
117 165 166 173
117 165 173 123
117 124 173 123
117 166 167 173
117 118 167 173
117 160 118 167
117 160 166 167
117 160 118 111
20 62 13 61
74 124 130 82
74 124 130 123
74 130 73 82
74 130 73 123
74 73 25 82
74 19 26 25
74 26 25 82
74 19 25 18
151 158 109 150
151 200 158 150
151 101 109 150
151 101 109 102
151 103 109 102
4 53 60 3
4 11 60 3
4 53 60 5
4 11 60 5
12 11 60 18
12 60 5 61
12 11 60 5
12 5 13 61
12 20 13 61
12 20 19 61
290 289 283 241
290 332 289 339
290 332 289 283
290 284 283 291
290 283 242 291
290 283 242 241
290 332 284 283
290 284 333 291
290 332 333 339
290 332 284 333
290 340 333 339
290 340 333 291
282 283 240 233
282 289 283 240
282 232 240 233
282 283 275 233
282 288 289 240
282 275 281 233
282 283 275 331
282 289 283 331
282 232 281 233
282 288 232 281
282 288 239 240
282 232 239 240
282 288 232 239
282 288 289 338
282 289 338 331
282 330 275 331
282 330 275 281
282 330 288 281
282 337 338 331
282 288 337 338
282 330 337 331
282 330 288 337
143 144 94 87
143 136 86 87
143 94 86 87
143 142 136 86
143 142 94 86
143 191 136 192
143 142 191 136
194 138 146 145
194 138 193 145
137 144 88 87
137 138 144 88
137 81 88 87
137 81 129 87
137 89 81 88
137 138 89 88
137 81 129 130
137 129 179 130
137 81 130 82
137 89 81 82
137 138 89 131
137 131 179 130
137 131 130 82
137 89 131 82
137 180 131 179
137 138 180 131
329 288 280 336
329 330 288 336
329 330 288 280
329 280 322 281
329 330 322 281
329 330 280 281
273 274 224 281
273 280 322 281
273 323 322 281
273 274 323 281
273 323 267 322
273 274 323 267
273 274 267 218
273 217 267 218
273 274 224 218
273 217 224 218
273 280 281 231
273 224 281 231
273 267 322 315
141 134 140 92
141 135 142 92
141 134 135 92
141 134 135 183
141 135 184 183
141 135 184 142
141 190 184 183
141 190 183 189
141 184 142 191
141 190 184 191
133 134 140 84
133 182 175 183
133 134 127 183
133 182 183 189
133 141 134 183
133 141 134 140
133 141 140 189
133 141 183 189
176 127 175 183
176 225 175 183
176 225 184 183
176 127 175 168
176 225 175 168
176 135 184 183
176 127 135 183
176 225 177 184
176 225 177 226
176 225 226 218
128 178 129 136
128 178 177 136
128 129 80 136
128 178 122 129
128 135 80 136
128 122 129 80
128 72 122 80
128 121 72 122
128 135 184 136
128 177 184 136
128 176 135 184
128 176 177 184
128 176 127 135
128 176 121 127
170 219 164 171
170 219 164 163
170 122 164 171
170 164 163 114
170 121 163 114
170 128 121 122
170 122 164 114
170 121 122 114
170 177 226 171
170 219 226 171
170 176 177 226
170 128 176 177
170 128 176 121
170 178 122 171
170 128 178 122
170 178 177 171
170 128 178 177
302 252 245 294
157 158 206 150
157 213 158 206
157 213 158 164
157 158 109 150
157 107 101 108
157 164 163 114
157 107 163 114
157 101 109 150
157 101 108 109
157 115 108 109
157 158 165 164
157 115 165 164
157 115 164 114
157 115 108 114
157 107 108 114
157 158 165 109
157 115 165 109
149 107 148 100
149 107 101 100
149 107 148 155
149 157 101 150
149 157 107 101
99 107 57 100
99 107 148 100
99 107 148 155
99 51 57 100
99 51 50 57
99 105 155 147
99 148 155 147
106 107 163 114
106 107 58 114
106 107 155 163
106 162 155 163
106 107 58 57
106 58 57 64
106 105 57 64
106 99 107 57
106 99 107 155
106 154 105 161
106 154 162 161
106 99 105 57
106 99 105 155
106 154 105 155
106 154 162 155
211 217 161 168
211 162 204 212
211 260 218 212
211 219 218 212
211 162 219 212
211 217 267 218
211 260 267 218
169 119 161 168
169 211 161 168
169 211 162 161
169 217 218 168
169 211 217 168
169 211 217 218
169 211 219 218
169 211 162 219
169 127 119 168
169 120 127 119
169 170 176 121
169 225 218 168
169 176 225 168
169 176 225 218
169 176 127 168
169 176 121 127
169 120 121 127
169 170 121 163
169 219 226 218
169 176 226 218
169 162 219 163
169 170 219 163
169 170 219 226
169 170 176 226
228 284 235 236
228 227 284 277
228 180 229 236
228 180 235 236
228 284 235 234
228 227 284 234
228 180 179 229
228 180 235 179
228 235 179 234
228 227 179 234
334 285 340 341
334 285 340 333
334 285 335 341
334 285 284 333
334 285 335 286
278 285 284 236
278 228 284 236
278 228 284 277
278 334 285 284
278 228 229 236
278 228 277 229
278 326 284 277
278 279 229 236
278 279 286 236
278 285 286 236
278 334 285 286
278 334 326 333
278 326 284 333
278 334 284 333
278 334 335 286
243 285 235 236
243 244 285 236
243 244 285 292
243 285 235 291
243 285 292 291
243 244 237 236
243 235 242 291
243 193 235 242
205 248 199 206
205 248 255 206
205 213 255 206
205 261 213 212
205 261 213 255
259 309 267 308
259 260 309 267
259 211 260 267
259 302 309 308
259 302 252 308
259 302 260 309
259 302 260 252
256 305 298 297
256 305 304 297
256 248 304 297
256 257 305 298
256 248 304 255
256 305 304 255
256 305 255 263
256 255 206 263
256 248 255 206
256 207 200 206
256 207 206 263
299 257 307 300
299 257 305 298
251 257 307 300
251 299 257 300
258 209 208 216
258 265 208 216
258 209 208 202
258 251 208 202
258 251 257 307
264 265 314 307
264 265 314 313
264 258 265 307
264 258 257 208
264 258 265 208
264 207 257 208
264 312 270 263
264 312 270 313
264 305 312 263
264 256 305 263
264 256 257 305
264 256 207 263
264 256 207 257
223 222 229 174
223 230 229 174
223 222 167 174
223 222 167 216
221 179 229 173
221 222 229 173
221 228 179 229
221 222 270 229
221 270 277 229
221 228 277 229
221 222 214 270
221 228 227 179
221 214 220 171
221 227 178 171
221 227 178 179
221 227 220 171
221 270 277 220
221 214 270 220
221 227 277 220
221 228 227 277
271 320 314 321
271 320 314 313
271 265 314 313
271 264 265 313
271 278 279 229
271 320 270 313
271 264 270 313
271 270 277 229
271 278 277 229
271 320 270 277
327 326 319 277
327 320 319 277
327 278 326 277
327 271 320 277
327 271 278 277
327 278 334 326
327 271 320 321
327 271 278 279
70 14 71 21
70 63 14 71
70 77 71 21
70 120 77 71
67 10 17 18
67 10 60 18
67 115 122 123
67 66 115 122
67 74 73 123
67 17 25 18
67 74 25 18
67 122 73 123
67 66 122 73
67 74 73 25
67 17 25 24
67 73 25 24
67 66 73 24
67 66 17 24
59 66 58 114
59 108 60 52
59 10 60 52
59 67 108 60
59 67 10 60
59 67 115 108
59 67 66 115
59 67 10 17
59 67 66 17
59 107 108 114
59 107 58 114
59 115 108 114
59 66 115 114
59 16 10 9
59 16 58 9
59 16 10 17
59 66 16 17
59 16 58 65
59 66 58 65
59 66 16 65
59 51 100 52
59 108 100 52
59 51 58 9
59 10 52 3
59 107 108 100
59 107 58 100
59 51 58 100
2 51 1 9
2 59 51 9
2 59 10 3
2 59 10 9
2 59 52 3
2 59 51 52
98 56 105 57
98 99 50 57
98 99 105 57
98 99 105 147
8 56 7 0
8 56 50 57
8 56 7 64
8 56 57 64
8 7 64 15
8 51 57 9
8 51 50 57
8 51 1 50
8 51 1 9
8 58 57 64
8 58 57 9
8 58 64 15
8 16 58 15
8 16 58 9
69 124 118 125
69 20 62 61
159 151 103 109
159 151 158 109
159 110 103 109
159 117 110 109
159 117 165 109
159 117 165 166
159 117 160 166
159 158 165 109
159 158 165 166
159 207 158 166
159 207 208 166
159 207 200 158
159 151 200 158
159 160 103 111
159 110 103 111
159 117 160 111
159 117 110 111
159 209 208 166
159 209 160 166
85 43 35 36
85 35 36 84
85 43 93 92
85 43 91 92
85 134 92 84
85 91 35 84
85 91 92 84
85 43 44 93
85 91 35 42
85 43 35 42
85 43 91 42
85 93 135 86
85 93 135 92
85 134 135 92
78 28 35 36
78 28 35 84
78 35 36 84
78 28 77 84
78 134 77 84
78 85 36 84
78 85 134 84
78 120 77 71
78 134 127 77
78 120 127 77
78 134 127 135
78 85 134 135
78 85 135 86
29 22 71 21
29 28 77 21
29 77 71 21
29 78 77 71
29 78 28 77
29 23 71 30
29 22 23 71
29 78 36 30
29 78 28 36
187 146 188 195
187 194 146 195
187 243 194 195
187 138 146 188
187 194 138 146
187 188 237 195
187 138 180 188
187 244 237 195
187 243 244 195
187 243 244 237
187 243 194 193
187 243 193 235
187 243 237 236
187 243 235 236
187 180 235 236
187 194 138 193
187 180 237 236
187 180 188 237
126 134 77 84
126 133 134 84
126 134 127 77
126 133 134 127
126 127 175 183
126 133 175 183
126 133 127 183
126 127 175 168
126 127 119 168
126 120 127 119
126 120 127 77
126 70 120 119
126 70 120 77
301 302 252 294
301 302 252 308
198 155 204 197
198 148 155 197
198 149 148 155
253 252 245 203
253 196 245 203
253 196 245 197
253 196 197 203
253 204 197 203
253 302 260 252
253 259 252 203
253 198 204 197
253 198 205 204
253 259 260 252
253 205 204 212
253 259 211 260
253 211 204 212
253 211 260 212
156 149 199 150
156 149 157 150
156 199 206 150
156 157 206 150
156 205 199 206
156 198 149 199
156 198 205 199
156 157 213 206
156 205 213 206
156 198 205 204
156 157 107 163
156 149 157 107
156 198 155 204
156 198 149 155
156 107 155 163
156 149 107 155
156 213 164 163
156 157 164 163
156 157 213 164
156 213 163 212
156 205 213 212
156 155 204 163
156 204 163 212
156 205 204 212
112 106 105 64
112 56 105 64
112 56 63 64
112 106 105 161
328 278 335 286
328 278 279 286
328 327 278 279
328 278 334 335
328 327 278 334
328 271 279 321
328 327 271 321
328 327 271 279
266 211 217 267
266 259 211 267
266 259 211 217
266 273 267 315
266 273 217 267
266 267 308 315
266 259 267 308
210 259 211 217
210 211 217 161
210 253 259 203
210 253 259 211
210 253 204 203
210 253 211 204
210 154 204 203
210 154 162 161
210 211 162 161
210 154 162 204
210 211 162 204
306 299 257 307
306 299 257 305
306 264 257 305
306 264 314 313
306 264 314 307
306 258 257 307
306 264 258 307
306 264 258 257
306 264 312 313
306 264 305 312
250 251 208 202
250 258 257 208
250 258 251 208
250 258 251 257
250 207 257 208
250 251 299 257
172 222 165 173
172 221 222 173
172 165 173 123
172 222 214 165
172 221 222 214
172 130 173 123
172 221 214 171
172 179 130 173
172 221 179 173
172 214 164 171
172 214 165 164
172 122 130 123
172 221 178 171
172 178 179 130
172 221 178 179
172 122 164 171
172 115 165 123
172 115 165 164
172 178 122 171
172 178 122 130
172 115 122 123
172 115 122 164
272 271 279 321
272 271 279 229
272 271 223 229
272 271 314 321
272 271 265 314
272 279 230 229
272 223 230 229
215 271 264 270
215 222 214 270
215 222 270 229
215 271 270 229
215 214 270 263
215 264 270 263
215 223 222 229
215 271 223 229
215 222 166 216
215 223 222 216
215 271 264 265
215 207 214 263
215 264 207 263
215 207 214 166
215 222 214 166
215 208 166 216
215 272 223 216
215 272 271 223
215 265 208 216
215 264 265 208
215 272 265 216
215 272 271 265
215 207 208 166
215 264 207 208
116 67 74 123
116 67 115 123
116 110 60 109
116 67 108 60
116 67 115 108
116 117 110 109
116 117 124 123
116 115 165 123
116 115 165 109
116 108 60 109
116 115 108 109
116 117 165 123
116 117 165 109
49 8 56 0
49 8 56 50
49 56 50 57
49 98 50 57
49 98 56 57
49 8 1 0
49 8 1 50
76 69 124 125
76 131 125 83
68 20 19 61
68 69 20 61
68 69 20 19
68 12 60 61
68 12 19 61
68 110 60 61
68 116 110 60
68 74 19 18
68 110 62 61
68 69 62 61
68 74 124 123
68 116 124 123
68 116 74 123
68 12 19 18
68 12 60 18
68 67 60 18
68 116 67 60
68 67 74 18
68 116 67 74
68 69 62 111
68 110 62 111
68 116 117 124
68 116 117 110
68 117 110 111
68 117 124 118
68 69 124 118
68 69 118 111
68 117 118 111
152 159 151 103
152 160 103 153
152 159 160 103
152 209 160 153
152 159 209 160
152 209 202 153
37 85 43 36
37 85 43 44
37 78 85 86
37 78 85 36
37 44 93 86
37 85 93 86
37 85 44 93
37 78 36 30
37 38 86 45
37 44 86 45
37 80 38 86
37 31 80 38
37 80 30 86
37 31 80 30
79 23 71 30
79 72 23 30
79 72 23 71
79 29 71 30
79 29 78 30
79 29 78 71
79 72 80 30
79 78 120 71
79 80 30 86
79 128 72 80
79 121 72 71
79 120 121 71
79 37 30 86
79 37 78 86
79 37 78 30
79 135 80 86
79 78 135 86
79 128 135 80
79 128 121 72
79 120 121 127
79 78 120 127
79 128 127 135
79 78 127 135
79 128 121 127
186 137 138 180
186 187 138 180
186 137 180 179
186 187 138 193
186 180 235 179
186 187 180 235
186 138 193 144
186 137 138 144
186 187 193 235
186 235 179 234
186 193 235 234
186 137 129 179
186 178 179 234
186 178 129 179
186 193 234 192
186 193 144 192
186 137 144 87
186 178 129 136
186 129 136 87
186 137 129 87
186 185 136 192
186 185 234 192
186 143 144 192
186 143 136 192
186 143 136 87
186 143 144 87
186 178 185 136
186 178 185 234
113 112 106 64
113 58 65 64
113 106 58 64
113 71 65 64
113 58 65 114
113 106 58 114
113 63 71 64
113 112 63 64
113 121 65 114
113 121 71 65
113 120 121 71
113 169 120 121
113 121 163 114
113 106 163 114
113 70 63 71
113 70 120 71
113 112 70 63
113 169 120 119
113 169 121 163
113 112 106 161
113 112 70 119
113 70 120 119
113 112 119 161
113 169 119 161
113 106 162 163
113 169 162 163
113 106 162 161
113 169 162 161
249 256 207 200
249 250 207 200
249 256 207 257
249 250 207 257
249 248 200 206
249 256 200 206
249 256 248 206
249 256 257 298
249 256 298 297
249 256 248 297
249 299 257 298
249 250 299 257
75 124 131 125
75 76 131 125
75 76 124 125
75 124 131 82
75 131 83 82
75 76 131 83
75 74 124 82
75 74 26 82
75 68 74 124
75 83 33 82
75 26 33 82
75 76 34 83
75 74 19 26
75 76 69 124
75 68 69 124
75 68 74 19
75 34 26 33
75 34 83 33
75 34 26 27
75 76 34 27
75 19 26 27
75 68 69 19
75 76 69 27
75 20 19 27
75 69 20 27
75 69 20 19
201 159 151 200
201 152 159 151
201 159 207 200
201 250 207 200
201 159 207 208
201 250 207 208
201 159 209 208
201 152 159 209
201 250 208 202
201 209 208 202
201 152 209 202
246 295 302 294
246 302 245 294
246 302 252 245
246 253 252 245
246 253 302 252
246 253 245 197
246 253 198 197
254 246 253 302
254 253 302 260
254 246 295 302
254 253 260 212
254 253 205 212
254 260 261 212
254 205 261 212
254 261 255 310
254 260 261 310
254 205 261 255
254 248 304 255
254 205 248 255
247 254 253 205
247 254 246 253
247 253 198 205
247 246 253 198
247 254 205 248
247 205 248 199
247 198 205 199
247 254 246 295
247 254 248 304
303 254 295 302
303 304 255 310
303 254 255 310
303 254 304 255
303 260 309 310
303 254 260 310
303 302 260 309
303 254 302 260
296 247 254 304
296 303 254 304
296 247 254 295
296 303 254 295
296 248 304 297
296 247 248 304
