VAPOR_TET 1
443 1996
0.41747214627980128 0.3103257194931946 0.54238322015462859
0.2559499661933739 0.30413175765058642 0.56257018549548754
0.40818855278243232 0.26681218214422198 0.47092777140841346
0.30729488197077931 0.47685715965546638 0.68988887908986696
0.28821030661140018 0.36232325013963607 0.68502954405150374
0.34010494752623688 0.41848340535614542 0.63288796778081546
0.88148131816444719 0.49592703648175912 0.14443807508010703
0.84961195872651918 0.43906135167710264 0.11944174971337862
0.81974747920157576 0.54449392950583531 0.14029014904312548
0.24356498221477496 0.54055472263868065 0.72409236558191492
0.14690742863862188 0.55847223447099981 0.73577769938560134
0.16927859599611955 0.62426286856571711 0.73577769938560134
0.5231839962371756 0.73542199488491056 0.25751682982038393
0.70550166093423883 0.68208983743422402 0.24370314842578711
0.66453978892906496 0.68512361466325666 0.18017314871975781
0.52007084692947647 0.4596392979980598 0.64317694094129407
0.49050033806626098 0.41848340535614542 0.63434018284975158
0.53165623070817536 0.41848340535614542 0.64532586647852541
0.80904106770144346 0.30572213893053468 0.29335185348502224
0.6807904871093865 0.22254901960784312 0.25042037804627104
0.75903371843490031 0.29719698974042386 0.18182526383866893
0.5822956168974337 0.49739395008378162 0.64852132757150838
0.48412705411999885 0.5573404474233471 0.60465796513507952
0.1884102066613752 0.43906135167710264 0.24190698768262925
0.16251433106975921 0.51108416380045274 0.27277390716406502
0.25459476144280802 0.50375841491019191 0.22032954111179703
0.37120704353705503 0.62426286856571711 0.54446159273304529
0.33733574389275955 0.64718376106064612 0.47855337037363677
0.24356498221477496 0.61295675691565976 0.5402872093365082
0.63416674015933205 0.56878472528441659 0.61813358026868925
0.56252315018961108 0.64146309198342011 0.5402872093365082
0.30930270159038131 0.34646059323279538 0.59573595555163594
0.2229870358938178 0.69737631184407789 0.77584296087250482
0.20240908957286063 0.79375753299820673 0.78235147132316185
0.087666460887203479 0.25385983478848811 0.55057618249698681
0.14067525060998914 0.31593174001234675 0.50942028985507248
0.16125319693094631 0.26355498721227621 0.53059205691272016
0.33369638710056737 0.58596437075579855 0.17053679042831527
0.38761060646147516 0.60368492224476 0.25677308404621224
0.44747773172237415 0.68122556368874387 0.1598538965811212
0.69627980127583267 0.27443778110944528 0.097561513360966523
0.63454596231296123 0.32588264691183821 0.11011406061675039
0.7630434782608696 0.37732751271423109 0.10312049857424227
0.085408766205132713 0.36321692095128905 0.43739747773172238
0.083509715730370138 0.41848340535614542 0.51514095893229861
0.070128171208513446 0.46484551841726196 0.40678925243260722
0.34645471381956083 0.58002616338889379 0.86953435047182293
0.39289619895934386 0.58839256842167154 0.80780051150895149
0.21804538907017085 0.53115648058323783 0.7780183437692918
0.11513213981244674 0.34651644765852369 0.50366434429843909
0.12009730428903193 0.32131728253520297 0.43167386894787901
0.41634917835200047 0.65642913837199046 0.47546667842549312
0.30217685275009554 0.64796278331422519 0.37566363876885089
0.42254020048799129 0.62426286856571711 0.88388599817738189
0.43745921157068524 0.54195108328188846 0.79910779904165574
0.18806626098715346 0.27443778110944528 0.44768645089220099
0.18971543639944738 0.29501572743040244 0.52759355616309489
0.9078152100420378 0.52425110973924804 0.19334009465855306
0.80709204221418696 0.56252902960284568 0.203117558867625
0.83426962989093689 0.56858482523444165 0.29335185348502224
0.13038627744951053 0.72715260017050298 0.87160978334362227
0.14067525060998914 0.81866272745979951 0.92097921627421586
0.55784607696151922 0.65980686127524479 0.47855337037363677
0.70656877443631128 0.62426286856571711 0.50459329158949939
0.62425698915248262 0.70322044859922983 0.43739747773172238
0.52136725754769675 0.67939706617279594 0.13901725607784343
0.71685774759678988 0.39876973278066852 0.62259899462033697
0.69627980127583267 0.52137313696093135 0.62528294676191321
0.61396801599200401 0.37732751271423109 0.64601963724020339
0.63454596231296123 0.63688596878031567 0.5402872093365082
0.14566981215274716 0.59869036070200199 0.43739747773172238
0.099228327012964135 0.51072845929976185 0.54078989916806308
0.15096422377046775 0.55699356204250816 0.55057618249698681
0.20019255078343179 0.57503454155275302 0.57115412881794392
0.49050033806626098 0.19893141664461883 0.30712437898697709
0.56375194755563396 0.19212599582561657 0.24973542640444485
0.5456315959667225 0.18133727254020049 0.35068495164182617
0.06709439397948086 0.37576946820707291 0.69462180674368712
0.074963988593938324 0.25186083428873796 0.63220595584560657
0.078412264456007297 0.33564247288120641 0.74606667254607983
0.11355351735896757 0.48021724431901697 0.31392979980597935
0.099519357968074762 0.5384116765146838 0.37566363876885089
0.71499985301466917 0.27443778110944528 0.50098921127671459
0.79916953288061854 0.29740276920363345 0.43739747773172238
0.80945850604109704 0.36699150424787608 0.51970926301555109
0.35674368698003939 0.58310697592380278 0.086417085574859609
0.30529882117764651 0.50426992386159863 0.079020783725784138
0.17154217009142492 0.51634917835200045 0.087572390275450551
0.40132727753770175 0.43981097686450893 0.62112326189846256
0.77874445130375991 0.60564864626510273 0.20689508187082928
0.26414292853573212 0.25628509274774375 0.42710850457124377
0.41847752594291093 0.28309227739071641 0.31556427668518683
0.46203221918452542 0.21270394214657379 0.41681953141076522
0.095756533497956875 0.35674956639327393 0.53652438486639031
0.055023958608930834 0.36343445924096773 0.57519034600346886
0.27443190169621073 0.40049828027162887 0.22132904136167214
0.16125319693094631 0.3155936737513596 0.32425110973924803
0.28779286827174644 0.54916806302730992 0.63288796778081546
0.61467942499338568 0.65512978804715294 0.087572390275450551
0.79916953288061854 0.61339771290825174 0.28849545815327626
0.17154217009142492 0.65477996295969665 0.86918452538436664
0.21559955316459423 0.78888643913337453 0.88272481406355641
0.26414292853573212 0.55224005644236707 0.239296528206485
0.2229870358938178 0.61647558573654349 0.31392979980597935
0.50013081694446893 0.2332818884675309 0.16025369668107126
0.50975835611605969 0.20621306993562044 0.24650174912543732
0.48380074668548079 0.65560896022576953 0.49299614898433136
0.50351441926095775 0.69076785136843344 0.43364935179469088
0.44173648469882709 0.39516859217450095 0.10422288855572209
0.47154217009142491 0.55748449304759384 0.10760355116559367
0.05470941000088192 0.46329335332333832 0.56086515565746542
0.049999999999999989 0.4596392979980598 0.63481347561513368
0.12009730428903193 0.47023106094011818 0.78782520504453657
0.08161948437545935 0.46992827115853836 0.71252168033630237
0.60981127083517062 0.25385983478848811 0.091729135432283893
0.41847752594291093 0.72232854161154725 0.34962077784637091
0.85061439868301147 0.33615986124584762 0.1698841755592792
0.39789957962195371 0.6714863156656965 0.3859526119293295
0.42605021018902312 0.58593203398300853 0.58293647294000062
0.48021136490578242 0.6139738954052385 0.56387247552694242
0.43694182320604402 0.62871358438427838 0.5360746097539465
0.38761060646147516 0.57584296087250497 0.59475703324808182
0.44972366757797572 0.50875885586618452 0.61822765088044207
0.35674368698003939 0.2770041449863303 0.26505129788047149
0.41847752594291093 0.30189464091483664 0.23502807419819505
0.33616574065908222 0.26165887644413088 0.09786136343592905
0.69627980127583267 0.3174074727342211 0.58144310197842253
0.61982391157362493 0.2744083840432725 0.5143531175588677
0.50436105476673432 0.28472675426992389 0.10815033659640766
0.38761060646147516 0.305304700590881 0.084670899844195624
0.85744039744833467 0.39790545903518826 0.39970749919158066
0.22395713907752007 0.305304700590881 0.69462180674368712
0.21953876003174883 0.25385983478848811 0.62259899462033697
0.59214069435870298 0.37732751271423109 0.10939971190875147
0.85042919716612286 0.43906135167710264 0.45797542405267955
0.77859158655966132 0.45615868536320076 0.57796248934356353
0.88148131816444719 0.54127201105329692 0.18017314871975781
0.12009730428903193 0.39790545903518826 0.79280212834759101
0.15096422377046775 0.22299291530705234 0.67760972454948987
0.18183114325190342 0.20842960872504923 0.59173207513890114
0.28933033483258375 0.40819443219566687 0.15498574242290619
0.2251212628979628 0.4263383014375165 0.11673427991886415
0.89383102566363881 0.52137313696093135 0.1698841755592792
0.35256930358350236 0.50980245171531879 0.63429020783725787
0.65741100038216183 0.20241496898609518 0.40653055825028661
0.56847311638298503 0.24276832172149221 0.47235940853102859
0.19935473439750717 0.24357086162800951 0.55363053767234027
0.20240908957286063 0.39790545903518826 0.80078343181350498
0.24356498221477496 0.31699297410118465 0.76664461886703705
0.28570567657347801 0.43906135167710264 0.77693359202751566
0.52272540200487994 0.74908869094864339 0.36537466560837228
0.68908927888996674 0.69219654878443138 0.37566363876885089
0.75393920686715465 0.56315224740570891 0.56161478084487171
0.62425698915248262 0.44341505717729368 0.081637122615162983
0.27194490989799219 0.39790545903518826 0.079767469206573238
0.43914954287562102 0.69628568068906727 0.23161801452215069
0.40818855278243232 0.54298292030455364 0.91172208013640255
0.87564600052914721 0.48021724431901697 0.30809448217067936
0.78888055972014004 0.44486727224622979 0.092055442866801895
0.84090160801951963 0.56252902960284568 0.4162433489137784
0.58012023400064672 0.28174589176000231 0.56086515565746542
0.53165623070817536 0.31738101537466562 0.60023370667607368
0.11072257988652734 0.34737484199076929 0.35508569244789373
0.32587676749860361 0.50518711232618985 0.86514242878560732
0.69068259987653235 0.62895464032689541 0.09786136343592905
0.42487138783549405 0.64484081488667433 0.083677279007555061
0.6040906017579446 0.53166211012140985 0.10773877766998857
0.91234823764588302 0.36168827351030364 0.26248493400358647
0.2846385630714055 0.33480759620189904 0.17854455125378488
0.55223417702913247 0.26531587147602664 0.51970926301555109
0.16535114795543399 0.56540700238116237 0.67551077402475235
0.33859687803157246 0.67570773436811005 0.087572390275450551
0.099519357968074762 0.54314754387512121 0.63288796778081546
0.94999999999999996 0.4596392979980598 0.26248493400358647
0.23711232618984629 0.26798512508451655 0.087572390275450551
0.74162771555398777 0.53197665872945876 0.10324690595878527
0.14067525060998914 0.3155936737513596 0.77330305435517532
0.7580136402387041 0.62842549313578511 0.45797542405267955
0.19804068553958315 0.40583090807537409 0.47050151394890788
0.27758326718993442 0.4322235940853103 0.49195255313519709
0.26414292853573212 0.38844842284739983 0.5402872093365082
0.16980186377399537 0.39790545903518826 0.52825792985860009
0.12845782990857513 0.305304700590881 0.61231002145985836
0.51959167475085988 0.26622130111414877 0.23750918658317899
0.5831010965105683 0.28588793838374932 0.21104006820119353
0.56650057324279035 0.26017138489578739 0.30597201399300356
0.53165623070817536 0.305304700590881 0.1944366052267984
0.16125319693094631 0.41848340535614542 0.72643531175588683
0.20571919922391746 0.43214128230002646 0.61299791280830174
0.20656583472969398 0.38148425787106444 0.67206837757591797
0.22322809183643472 0.46992827115853836 0.70491077990416562
0.19212011641238202 0.47452597230796367 0.72089102507569747
0.13157979833612604 0.49071199694270512 0.6705691272011054
0.7580136402387041 0.37825646000529145 0.23068906723109034
0.65343945674221715 0.35158450186671369 0.27477878707704972
0.73906723109033723 0.43849398829996766 0.25660552076902726
0.75829879178058035 0.35674956639327393 0.33479289766881271
0.30529882117764651 0.42308992562542258 0.55625863538818832
0.24356498221477496 0.38362142458182674 0.56086515565746542
0.24864479524943411 0.39790545903518826 0.62259899462033697
0.40818855278243232 0.3660890143163712 0.28211335508716229
0.40818855278243232 0.35451244965752415 0.33450774612693657
0.367032660140518 0.35041449863303642 0.29335185348502224
0.39492753623188404 0.41618749448805009 0.33332892377340745
0.2459255666284505 0.50774759678984038 0.27859452626627856
0.4151115618661258 0.39098244995149484 0.51970926301555109
0.40818855278243232 0.43906135167710264 0.54657524179086936
0.49324602404680012 0.52348090660552082 0.34579915924390747
0.55087015315871479 0.48610547667342796 0.40958197371902283
0.50268248228826762 0.54722491695328801 0.43854984272569597
0.55223417702913247 0.61780727283417114 0.41681953141076522
0.46233206925948794 0.48931269659288001 0.25820178146221007
0.43749448805009261 0.49304906370344237 0.35384219654878446
0.40818855278243232 0.54354146456183672 0.29176147220507392
0.46807331628303495 0.60553399770702887 0.41681953141076522
0.53165623070817536 0.59201428697415992 0.45797542405267955
0.46749713378604818 0.65512978804715294 0.34479671928741512
0.46451039186289211 0.60368492224476 0.29335185348502224
0.14067525060998914 0.38438574830231942 0.71519975306464412
0.16968133580268685 0.3155936737513596 0.60202104829937975
0.22761119440279864 0.33921127671458384 0.57132169209512884
0.22636769850368932 0.33620395684510684 0.63851750595290591
0.51107828438721814 0.52732898256753979 0.5402872093365082
0.55223417702913247 0.55923067877825794 0.51970926301555109
0.57208601581562157 0.52137313696093135 0.56013904812299742
0.55617632360290448 0.55781080048211185 0.56199106329188353
0.64439691918746511 0.33617162007231677 0.46870241349913278
0.69627980127583267 0.32026192785959962 0.43739747773172238
0.77859158655966132 0.48021724431901697 0.44162477584737042
0.79463944498339067 0.4596392979980598 0.31845988770320721
0.32759355616309493 0.54060763735779171 0.58096099009318869
0.367032660140518 0.52932504336067265 0.5402872093365082
0.66541288179439695 0.28047005908810302 0.34479671928741512
0.6036790428315254 0.26534820824881677 0.26248493400358647
0.78274833171649472 0.39790545903518826 0.37566363876885089
0.7477246670782256 0.34399417938089782 0.396241585089808
0.60832671899344448 0.58453273363318337 0.38900402739806567
0.65512390863391834 0.59301084751741773 0.42672340300438016
0.69627980127583267 0.60223270717582389 0.37566363876885089
0.6803848075962019 0.52301937266660792 0.43356704000940705
0.28472087485668929 0.50693623776347119 0.56808507510950412
0.30054825528412266 0.47274157039127496 0.54857130258400211
0.30831789987359259 0.50181526883617011 0.51824822882676314
0.24567569156598174 0.45527383367139956 0.54328571008613347
0.70257665285004567 0.44412058676544081 0.12925743010847518
0.65512390863391834 0.40707440397448336 0.16071523061998411
0.42876649910338949 0.58893641414586828 0.36091513066995912
0.34645471381956083 0.55708469294764384 0.33995208278213829
0.35047035305876473 0.53842931475438749 0.4046021107093512
0.3690346003468854 0.49634447482141281 0.32726724872857693
0.50078931122673953 0.63695064232589593 0.22132904136167214
0.43437545932915894 0.43867331040362173 0.3005453155775053
0.46199400299850074 0.42096745744774672 0.38149013728429904
0.54481141782050158 0.43072434371049773 0.30561924919892991
0.20195049534056503 0.35720816062556959 0.37566363876885089
0.1862083664050328 0.33235882058970512 0.40424640620866037
0.23327600905429641 0.33181203515889113 0.40653055825028661
0.57281212335008969 0.50079519063997413 0.18281300526207483
0.57653379192756571 0.51486462651027431 0.4822427021783226
0.47800070552958818 0.45488873210453595 0.47538436664020928
0.46890231354910783 0.31457359555516357 0.396241585089808
0.49065908222359411 0.33617162007231677 0.27277390716406502
0.63454596231296123 0.54548755034247587 0.5402872093365082
0.59339006967104679 0.56886997677631768 0.50547226386806599
0.52603257194931952 0.48021724431901697 0.56648881441632126
0.35819002263574096 0.52954846106358588 0.4877340741394009
0.367032660140518 0.4596392979980598 0.56017726430902193
0.36502190081429875 0.47068083605256195 0.43681541582150102
0.55999794220536792 0.56110621160008234 0.46216156627568566
0.16188229414704414 0.33529558750036748 0.53744451303759888
0.367032660140518 0.57584002116588762 0.396241585089808
0.19013581444571837 0.33187376899785398 0.5118014522150689
0.70665108622159511 0.48021724431901697 0.5402872093365082
0.12131140312196842 0.44027545051003908 0.62259899462033697
0.1429388247052944 0.43906135167710264 0.68433283358320851
0.5687229914454538 0.41307728488696827 0.48947732016344775
0.57692183320104651 0.45823411823500015 0.52599141605667754
0.36292882970279572 0.37732751271423109 0.17398800599700148
0.48549989711026842 0.30515183584678246 0.22402475232971752
0.47334421024781731 0.28768703883352442 0.29117647058823526
0.63454596231296123 0.37732751271423109 0.55613516771026261
0.68196930946291556 0.45701120028221182 0.49827292236234827
0.60901167063527062 0.40476085486668428 0.50926742511097389
0.40818855278243232 0.54526119293294528 0.51970926301555109
0.39717935150072026 0.59904900490931001 0.48027309874474527
0.3981171179116324 0.57260046447364554 0.47855337037363677
0.44934444542434665 0.58627891936384746 0.46826439721315816
0.15507393362142458 0.36179704265514301 0.46301408119469678
0.18222800364523623 0.37772437310756385 0.47855337037363677
0.23069788635094218 0.40062762736278917 0.40703030837522414
0.17582826233941851 0.37732751271423109 0.3859526119293295
0.56782638092718352 0.58809271834670895 0.45797542405267955
0.61718699473792515 0.57988799717788164 0.45797542405267955
0.57719522591645356 0.25824293735485193 0.37566363876885089
0.55223417702913247 0.65232236822765088 0.25219596084310786
0.69627980127583267 0.51108416380045274 0.1657421289355322
0.79250227827262842 0.48688449892700708 0.19046212188023637
0.75233706676073731 0.52137313696093135 0.23161801452215069
0.62425698915248262 0.51108416380045274 0.56768233530293677
0.65512390863391834 0.52137313696093135 0.55234294617397184
0.66624481876708708 0.56546873622012517 0.54768939059881827
0.63454596231296123 0.60368492224476 0.18123438280859566
0.14067525060998914 0.42877237851662403 0.56824969868007169
0.13419613722550489 0.46611841138254401 0.60202104829937975
0.57517270776376517 0.52137019725431399 0.59096481171179116
0.65433018784725283 0.33476056089602257 0.38196343004968103
0.25021753828967874 0.46412823000264575 0.39812299732486695
0.18162242408207663 0.41848340535614542 0.35487697327806683
0.18183114325190342 0.48021724431901697 0.35229003145486082
0.14443807508010703 0.44935032483758119 0.41681953141076522
0.76474556839227448 0.39790545903518826 0.45124349589910928
0.43572184495987298 0.59672957638827651 0.41681953141076522
0.44748949054884324 0.61644030925713611 0.45921891995178876
0.40960255166534376 0.58169297704089129 0.45797542405267955
0.40164770555898521 0.58964782314724995 0.41681953141076522
0.14338272040450367 0.41848340535614542 0.44768645089220099
0.16481906105770644 0.39032395566922418 0.7526192785959962
0.24079283887468034 0.40221212922950289 0.75706705470794011
0.20240908957286063 0.40819443219566687 0.72580033512655429
0.4287547402769204 0.53731222623982122 0.48072581356380634
0.46878766499103391 0.55113766646088724 0.47213305112149806
0.48584090307787287 0.58310697592380278 0.1858026868918482
0.51107828438721814 0.66541876120763144 0.38069935620425083
0.42107034717935149 0.62671458388452828 0.40377605314989562
0.12501249375312345 0.35183437692918246 0.62259899462033697
0.097837845782990873 0.41474409853896582 0.58708145927036481
0.62995120087015322 0.50179469088984918 0.51251580092306792
0.66301702090131409 0.62426286856571711 0.32661463385954081
0.24386777199635479 0.54429696916247761 0.55343357732898257
0.15179616074315788 0.4596392979980598 0.56086515565746542
0.12256959755416413 0.43961107681453393 0.54527883117264897
0.2229870358938178 0.34880647911338447 0.45797542405267955
0.20240908957286063 0.51288032454361054 0.51121645059823029
0.18183114325190342 0.49055913219860658 0.68433283358320851
0.40818855278243232 0.51684892847693797 0.23161801452215069
0.41385336743393009 0.42362789193638473 0.23874680306905371
0.40818855278243232 0.50720081135902639 0.18405650116118411
0.50078931122673953 0.33617162007231677 0.18712555486962401
0.44934444542434665 0.37448187670870448 0.21388570420672015
0.67570185495487545 0.61116647558573656 0.22132904136167214
0.6595246494399859 0.56692977040891324 0.47855337037363677
0.15096422377046775 0.32652056324778789 0.68433283358320851
0.46992239174530381 0.39790545903518826 0.17950877502425261
0.53251168533380366 0.23564247288120643 0.28822206543786927
0.34645471381956083 0.42007672634271098 0.25378928182967336
0.27830349531116794 0.49050621747949552 0.58531469559337979
0.33616574065908222 0.51267748478701824 0.56086515565746542
0.26508069494664432 0.49772613693153422 0.66799100449775106
0.24356498221477496 0.48389481729723371 0.62627656759855366
0.20240908957286063 0.4997604139106917 0.62156421789105443
0.6365978775318224 0.3155936737513596 0.1884102066613752
0.58914219360907782 0.26222623982126581 0.19168210012640735
0.57306199841255845 0.57986153981832611 0.25690537084398979
0.55223417702913247 0.66178528382867396 0.31756327718493693
0.61396801599200401 0.64010494752623692 0.3859526119293295
0.86090337184348997 0.42768762677484784 0.22024428961989595
0.46992239174530381 0.58310697592380278 0.47852985272069848
0.39152335596907428 0.60210336008466359 0.34493194579180997
0.44934444542434665 0.52137313696093135 0.53613634359290951
0.24356498221477496 0.54195108328188846 0.34130434782608698
0.24356498221477496 0.55796660493282768 0.43739747773172238
0.19528030102595767 0.54195108328188846 0.396241585089808
0.17308845577211396 0.36703853955375254 0.56241144133815446
0.13755916159567272 0.37732751271423109 0.66375488726225129
0.15451538936414144 0.43906135167710264 0.49913131669459387
0.28244554193491489 0.52364846988270575 0.31392979980597935
0.28379192756562893 0.57374695005438459 0.3859526119293295
0.367032660140518 0.57587823735191224 0.45797542405267955
0.367032660140518 0.55507981303465914 0.51226004644736456
0.22845782990857511 0.50626598465473149 0.56086515565746542
0.7580136402387041 0.55849575212393798 0.3859526119293295
0.77140988329364735 0.51419143369491727 0.27277390716406502
0.68141370491224973 0.51352118058617746 0.32323103154305199
0.72617661757356622 0.37732751271423109 0.49913131669459387
0.66702972043390074 0.43467236969750422 0.44395302348825594
0.7455963194873152 0.41848340535614542 0.49913131669459387
0.77392627215803866 0.4596392979980598 0.16521886115765644
0.26414292853573212 0.35822529911514833 0.33450774612693657
0.32004732927653823 0.41878619513772525 0.3621409883293647
0.42174060028809124 0.54698092130405385 0.43132992327365727
0.35189905047476266 0.60955257665285001 0.437382779198636
0.31818061557456567 0.57541082399976484 0.45797542405267955
0.6210703471793515 0.6066863627010024 0.4874548020107593
0.23794132345591906 0.51216597583561163 0.38243672281506308
0.67570185495487545 0.30922920892494926 0.23161801452215069
0.56478378457829914 0.56963430049681041 0.33347590910427138
0.2950098480171679 0.5563321280536202 0.50942028985507248
0.31730752270923362 0.50079519063997413 0.26076520563247785
0.33748566893024079 0.50079519063997413 0.19943116676955636
0.33616574065908222 0.52840197548284684 0.27603404180262814
0.50078931122673953 0.2699958844107358 0.36537466560837228
0.62425698915248262 0.43932298556604049 0.1598568362877385
0.71601405179763056 0.58310697592380278 0.25219596084310786
0.21269806273333919 0.35323955669224211 0.60202104829937975
0.52897815797983361 0.6139738954052385 0.18285122144809951
0.46390481229973252 0.60004850515918506 0.5119425581326984
0.44934444542434665 0.56252902960284568 0.50212981744421914
0.6535776229532293 0.40890584119704854 0.3613296293029955
0.56777052650145521 0.33113002322368229 0.45797542405267955
0.601877002675133 0.34826263338918773 0.51970926301555109
0.61396801599200401 0.48021724431901697 0.57978510744627687
0.40846488520445656 0.33589528765029253 0.43739747773172238
0.30529882117764651 0.35727871358438423 0.47855337037363677
0.50212393803098454 0.34779522003704033 0.49913131669459387
0.6399432636622866 0.51823647000029394 0.59593879530822824
0.60095099509068994 0.37732751271423109 0.18290119646059327
0.72714672075726838 0.39790545903518826 0.16768821471617135
0.69333127553870122 0.34940911896992677 0.18017314871975781
0.57281212335008969 0.39790545903518826 0.57173325102154804
0.54231266719581384 0.45033512655436986 0.612233589087809
0.40818855278243232 0.45725519593144603 0.17226827762589292
0.37079548461063588 0.42877237851662403 0.20451391951083281
0.50078931122673953 0.6719596084310786 0.30364082664550074
0.13058029808625105 0.39045624246700178 0.48059058705941154
0.12918099773642594 0.38919216862157158 0.42564159096922127
0.12239321515712731 0.42589734544492458 0.45149337096157804
0.16103271893465027 0.50079519063997413 0.43717699973542645
0.5042434665020431 0.59550959814210547 0.50886174559778929
0.52989534644442482 0.61898021577446571 0.29698533086397977
0.73267924861098865 0.53719463797513012 0.47855337037363677
0.3339991768821472 0.50079519063997413 0.1595952023988006
0.64049298879971783 0.46470441249963251 0.23186201017138486
0.19212011641238202 0.37442014286974157 0.52709086633154012
0.1928961989593439 0.30794161742658083 0.55972160978334362
0.24356498221477496 0.43906135167710264 0.30092159802451718
0.30529882117764651 0.43906135167710264 0.28133727254020052
0.44108386982979098 0.54195108328188846 0.25219596084310786
0.8309859775994356 0.49436899197460094 0.16364905782402916
0.29235823264838168 0.45518270276626394 0.23316723990945704
0.17143340094658555 0.34458506041097098 0.72562395272951763
0.2229870358938178 0.50079519063997413 0.32404826998265568
0.67570185495487545 0.43906135167710264 0.56372842990269578
0.24138371990475349 0.3363979774818473 0.50729488197077932
0.19212011641238202 0.38739012846517917 0.72526236881559214
0.79225828262339415 0.41848340535614542 0.29335185348502224
0.40330570009113093 0.48747244025046299 0.50935855601610958
0.24378252050445365 0.43906135167710264 0.65357468324661205
0.21877737601787345 0.46559808331128555 0.46222036040803133
0.48973013493253376 0.57428197665872949 0.53749154834347534
0.67154804950465952 0.38241320516212485 0.20674515683334804
0.51048152394391044 0.37732751271423109 0.5402872093365082
0.27914719111032715 0.51710174324602409 0.43961695622776847
0.26188523385366147 0.53065673045830031 0.58833083458270863
5 266 143 345
428 95 23 424
188 393 199 198
347 190 349 9
62 382 291 30
29 22 225 30
412 353 250 418
22 222 118 264
318 112 147 187
320 396 356 222
442 73 97 349
272 67 431 299
156 163 54 46
415 414 315 309
432 31 220 198
238 99 327 392
251 335 200 261
25 23 24 204
379 208 212 259
289 178 179 331
289 254 377 424
193 116 406 20
301 164 166 391
15 264 21 22
318 191 190 9
416 71 364 44
378 344 203 249
234 134 130 310
337 128 124 104
47 9 48 149
401 203 252 267
284 27 26 368
261 253 257 405
182 36 132 423
132 221 341 219
365 103 389 247
169 145 127 226
419 299 272 281
384 407 439 350
231 368 346 242
136 58 57 427
272 135 431 67
217 38 213 426
334 336 211 426
397 372 236 208
246 216 214 323
249 212 267 379
422 331 432 180
428 277 95 344
396 286 356 395
302 303 325 330
370 392 372 371
359 361 430 24
342 338 335 261
374 235 305 227
306 307 308 309
109 98 166 257
327 353 236 385
94 325 362 324
397 421 372 253
306 383 416 308
406 244 245 42
190 189 318 436
266 231 265 435
289 378 256 402
331 287 271 35
41 350 19 351
379 246 207 209
339 12 327 353
313 367 284 285
300 69 262 382
49 414 287 413
369 243 329 188
351 233 105 183
323 51 380 52
261 260 253 185
152 134 159 228
186 114 104 351
25 204 428 23
93 325 362 94
406 295 376 195
413 414 315 415
362 302 324 325
194 185 305 232
366 270 381 52
253 397 185 398
345 241 243 197
176 316 429 317
399 226 127 280
47 163 54 149
170 192 191 333
430 24 308 424
235 130 83 310
367 284 314 313
309 80 416 45
178 437 309 289
260 145 401 403
50 162 414 43
243 329 188 181
2 145 169 403
393 220 198 362
169 398 145 226
158 376 8 7
64 354 62 237
397 208 374 226
124 277 108 338
68 66 67 431
430 361 359 383
374 239 281 326
205 267 266 179
256 289 254 377
222 304 264 22
395 106 120 312
188 348 190 349
178 290 331 289
282 408 399 403
429 131 138 148
369 303 73 349
409 21 408 68
208 385 372 236
189 199 4 436
30 223 119 225
124 277 200 123
294 339 301 352
422 331 288 271
277 411 335 344
267 367 319 265
365 103 247 366
224 262 223 258
395 356 417 106
281 228 272 419
351 19 41 40
340 299 300 419
250 217 352 321
184 350 351 233
225 438 222 223
405 41 133 186
51 106 107 312
42 158 7 376
188 273 302 303
326 340 281 299
335 251 203 344
104 75 105 351
347 9 3 317
201 203 252 401
352 294 394 301
131 189 429 341
303 72 369 73
244 295 158 406
113 273 77 274
354 327 238 151
331 55 50 35
392 372 238 370
98 65 12 294
345 188 197 243
190 191 333 9
273 303 111 325
420 277 410 140
187 218 113 137
9 3 143 347
351 114 19 40
399 169 408 160
361 24 81 308
96 255 290 254
117 51 115 107
151 63 177 238
373 374 375 281
301 14 295 89
289 290 309 178
427 355 57 7
297 58 89 295
295 175 391 244
51 312 284 120
372 239 374 236
428 25 23 95
341 79 138 78
290 254 289 307
330 71 329 303
92 401 2 91
40 42 20 407
254 377 424 96
188 199 436 197
21 431 67 400
297 339 372 295
108 109 321 85
224 298 262 326
82 83 84 310
372 195 397 234
230 28 368 26
86 140 108 129
408 403 440 161
374 228 310 375
197 179 205 266
284 27 368 367
301 295 339 89
298 262 299 300
435 266 231 206
336 334 420 37
288 178 422 181
108 129 277 124
130 157 134 229
191 9 48 10
187 189 433 318
246 214 311 323
37 25 102 388
180 422 331 178
214 311 323 312
227 235 310 374
422 432 331 271
48 9 147 149
366 52 247 270
102 24 103 204
205 259 206 435
258 208 374 236
9 143 97 347
299 300 67 404
188 369 243 345
232 233 185 76
164 98 14 301
167 116 7 355
189 317 148 429
36 182 132 139
261 278 338 279
217 38 250 155
197 5 199 436
166 164 175 391
197 179 241 243
299 298 300 404
180 422 181 198
263 382 262 69
267 242 266 179
266 5 197 345
169 403 399 408
358 88 206 231
419 238 63 340
188 345 197 436
344 334 251 249
388 428 387 344
384 194 196 232
376 295 296 195
324 362 219 393
90 402 1 432
173 157 167 57
241 345 346 266
246 357 247 213
103 361 81 70
152 69 29 300
38 37 389 334
197 179 243 180
310 375 84 373
195 371 372 297
202 277 123 200
20 407 19 40
196 18 232 235
331 179 289 402
72 71 303 329
106 417 119 62
314 270 381 248
333 170 349 9
261 186 278 279
70 103 361 360
51 312 323 314
401 202 378 377
415 309 315 364
275 258 374 276
394 321 98 65
204 23 24 424
237 62 63 382
234 228 374 239
19 41 40 407
395 118 438 396
143 97 347 345
388 428 344 411
242 265 386 441
138 341 429 79
123 91 256 202
323 246 357 270
352 394 294 250
109 257 108 321
195 295 296 297
213 38 334 426
418 353 352 385
264 358 118 122
124 128 337 108
412 155 250 12
62 223 30 291
408 409 17 16
194 195 196 397
118 395 438 119
373 135 84 66
342 335 410 336
84 126 82 373
123 200 91 202
347 442 345 97
184 421 194 253
296 58 355 371
58 89 99 297
199 436 5 4
310 82 83 235
233 184 350 194
394 321 65 250
402 180 179 197
266 435 205 206
245 244 406 295
60 33 11 32
290 287 315 288
99 151 177 370
12 98 294 14
340 263 326 292
305 397 235 374
220 198 199 393
252 251 201 253
44 325 93 94
119 417 438 223
179 178 180 331
220 393 199 221
361 332 360 441
191 170 333 9
260 279 390 261
327 13 12 14
351 233 19 75
187 188 274 363
62 210 354 107
387 388 102 428
324 362 94 182
91 260 279 92
401 202 91 201
76 185 232 293
249 334 389 387
285 313 367 379
435 283 358 231
425 387 424 428
261 279 338 200
208 268 258 209
369 329 72 303
41 153 42 245
179 241 266 197
353 418 210 385
318 190 317 9
348 442 345 347
147 317 316 176
422 220 219 362
225 262 29 30
218 433 429 316
403 275 282 408
434 355 195 193
327 12 339 14
411 335 410 277
341 324 182 219
329 303 188 302
257 301 421 352
368 386 28 230
56 36 269 423
378 377 289 256
372 229 370 371
260 201 253 252
372 352 339 327
372 295 339 421
248 367 267 265
375 310 84 134
163 149 47 48
311 312 286 313
285 367 368 265
76 145 293 144
330 181 44 93
208 253 252 398
162 307 96 290
184 439 405 350
435 358 206 231
372 339 392 327
18 384 196 232
430 204 359 24
425 428 424 95
345 369 348 188
319 396 320 222
398 305 185 293
211 321 336 257
400 298 299 404
44 364 181 330
16 88 0 205
300 67 404 29
188 303 190 274
132 146 36 139
111 113 192 273
260 252 253 398
405 257 421 253
154 86 140 141
16 15 122 264
28 70 72 332
265 283 368 285
359 103 365 366
291 268 292 236
239 236 258 374
49 271 35 269
219 423 182 132
260 253 185 398
17 15 409 21
88 205 5 0
370 159 228 177
113 172 111 192
353 322 210 216
385 207 217 246
239 372 228 370
426 321 38 336
321 165 65 39
202 95 344 425
240 328 332 386
133 153 391 166
301 295 164 391
290 287 288 331
187 137 112 147
411 420 334 388
416 383 306 437
414 315 287 413
375 374 373 310
339 13 392 327
416 45 44 415
248 367 265 381
50 255 96 55
289 254 290 256
286 356 320 396
296 195 371 355
428 204 424 23
432 256 402 331
408 276 264 440
9 191 48 318
186 185 390 261
345 348 369 442
160 399 127 280
340 299 262 300
214 311 286 320
437 332 361 441
307 162 309 290
316 147 176 137
1 2 402 90
31 0 5 205
311 286 312 214
59 159 157 370
268 210 215 209
372 327 238 236
425 424 387 365
402 378 267 306
78 34 139 182
226 373 281 374
162 307 80 96
190 191 274 333
132 4 221 31
49 287 271 288
194 421 439 195
25 102 428 204
328 240 230 386
374 275 282 226
238 151 63 237
193 406 355 195
281 239 374 228
278 338 279 124
380 314 367 284
207 217 213 211
357 38 217 117
65 98 165 109
128 133 186 337
31 220 198 199
390 293 76 145
328 240 332 369
386 332 242 441
31 221 199 4
376 158 8 295
195 296 376 355
0 205 403 161
214 216 322 323
4 221 189 131
207 211 251 253
300 382 340 63
147 317 9 318
364 181 329 332
283 284 285 286
344 425 428 387
359 24 103 361
164 98 301 166
302 325 362 93
248 314 379 367
410 277 420 411
249 213 389 334
85 165 39 171
20 193 19 407
353 354 150 151
186 41 350 405
106 107 356 215
383 359 360 361
110 172 71 303
59 58 99 371
207 385 208 210
137 316 147 187
122 118 121 358
140 388 428 25
181 413 288 315
383 430 365 359
114 41 351 186
418 217 352 250
3 347 5 143
223 215 62 417
412 115 322 216
112 187 318 191
280 226 281 282
284 286 312 313
12 155 115 412
278 261 338 337
357 117 52 38
244 406 158 42
256 91 90 401
118 26 121 283
197 5 436 345
144 76 19 232
228 177 419 370
253 352 372 385
157 130 18 434
301 391 166 257
359 366 383 360
433 318 317 316
257 211 217 253
409 15 17 16
295 391 301 421
435 267 265 266
259 252 401 260
307 162 80 309
227 373 226 374
259 275 403 440
189 221 393 341
249 246 212 379
410 411 336 335
287 290 50 331
183 278 186 279
51 26 120 284
201 401 202 378
24 204 359 103
72 416 71 364
74 105 75 343
342 277 335 338
442 230 240 345
217 352 253 385
432 402 1 31
332 329 364 72
326 281 431 299
48 46 47 163
352 394 321 301
415 43 44 413
354 236 237 238
187 218 137 316
140 86 420 141
176 218 429 316
50 331 35 287
200 335 251 203
141 87 86 420
205 402 0 2
226 398 399 169
38 52 115 117
397 421 253 194
408 409 264 21
187 363 218 341
168 140 129 277
184 185 233 183
326 400 299 431
169 398 403 145
427 57 136 142
190 436 188 189
222 438 118 396
186 405 350 184
332 72 328 369
319 396 286 320
284 286 283 120
293 390 185 260
303 192 274 273
425 424 365 378
75 343 76 74
299 67 300 152
267 259 205 435
90 123 91 256
20 42 406 407
188 273 363 393
132 1 31 220
102 37 388 389
332 361 360 70
353 322 216 412
235 18 232 144
102 388 25 428
77 324 78 341
362 198 188 181
275 258 276 259
32 101 100 60
16 161 205 0
95 424 425 377
393 363 324 273
205 440 161 16
119 438 22 225
374 282 275 276
422 198 432 220
386 368 367 265
386 27 368 28
224 262 298 225
328 332 28 72
300 298 29 404
103 389 102 365
106 395 119 417
261 251 211 253
336 342 257 108
306 308 430 383
379 314 311 313
34 93 35 182
239 370 228 419
168 123 95 277
125 168 129 124
416 309 437 306
296 427 355 58
267 248 379 367
291 292 210 236
273 113 192 274
216 210 214 322
413 315 364 415
191 113 10 112
70 52 103 360
398 293 145 226
259 275 440 276
86 410 140 420
128 133 41 186
222 215 417 356
378 306 365 267
396 395 118 120
440 16 206 264
106 120 119 395
306 365 267 248
417 356 215 106
149 148 4 317
421 439 295 245
219 132 220 423
309 308 306 416
366 248 247 365
158 153 175 244
379 246 314 248
308 430 424 306
249 213 212 246
28 360 332 386
103 38 389 247
359 103 360 361
135 152 272 228
165 109 85 321
46 54 156 53
365 383 441 306
63 237 382 340
405 133 245 391
416 437 309 364
207 246 379 212
80 24 424 308
280 431 408 282
436 347 317 190
434 355 157 229
108 257 405 342
227 82 310 235
293 390 76 343
263 223 268 291
252 398 260 259
245 41 407 42
126 373 66 68
285 313 286 284
92 74 76 343
211 253 257 261
441 366 360 383
266 88 231 206
240 242 332 243
361 81 416 308
249 246 379 248
143 346 230 345
271 55 56 1
274 303 333 192
288 422 269 181
2 403 0 205
389 247 38 213
263 262 30 69
130 18 235 83
246 117 217 216
66 373 431 68
68 373 280 126
222 356 417 438
335 342 410 277
239 419 228 281
366 383 441 365
307 254 424 96
252 401 260 201
49 413 181 93
92 401 260 145
183 390 279 186
425 344 249 387
381 441 248 366
236 238 372 239
124 125 168 123
259 358 222 264
317 189 4 436
426 38 321 217
94 110 325 111
192 303 172 111
246 270 248 247
188 274 273 303
311 323 314 246
246 213 247 249
104 186 351 183
317 149 148 147
355 434 157 18
291 382 263 30
430 204 424 365
329 303 369 188
429 79 176 138
322 354 107 150
402 306 179 289
133 405 186 337
127 82 126 280
262 300 382 340
338 335 261 200
308 430 383 361
366 103 52 360
335 336 334 411
202 335 200 203
285 367 319 379
73 172 170 303
319 313 379 311
376 427 355 296
380 51 314 284
193 20 406 407
319 222 259 358
35 93 49 269
362 269 182 219
428 388 140 411
269 288 181 49
28 27 368 26
178 180 422 181
166 257 98 301
401 403 205 259
251 203 252 201
155 38 115 216
262 225 29 298
138 341 131 429
405 245 133 41
237 210 292 236
287 50 290 414
260 390 185 261
332 369 329 72
420 336 411 334
259 206 264 440
277 200 202 335
251 335 261 211
266 88 206 205
334 249 344 387
373 280 281 431
371 57 355 229
407 19 350 384
223 268 215 222
222 304 224 264
268 208 210 209
392 371 370 99
439 184 421 194
412 115 150 322
305 196 235 397
371 99 392 297
107 64 354 62
380 270 323 52
439 407 245 350
97 170 9 349
408 17 68 161
169 398 399 403
342 335 336 211
405 41 350 245
147 176 148 317
198 188 243 197
300 419 299 152
338 337 108 124
405 337 108 342
240 369 345 243
278 124 183 104
209 222 259 320
68 431 408 280
374 310 228 234
205 267 435 266
162 414 45 309
185 194 305 397
63 237 340 238
265 242 266 267
114 104 128 186
301 339 294 14
253 194 184 185
248 270 366 247
347 349 97 9
243 181 198 180
88 266 143 5
275 440 408 403
411 388 334 344
137 112 113 187
395 312 356 106
292 263 326 258
112 113 187 191
303 170 349 333
377 425 202 378
19 41 407 350
282 374 326 276
254 290 256 255
209 207 379 208
270 314 323 246
368 386 346 242
322 323 107 214
439 406 245 407
1 402 0 31
28 360 386 27
58 8 295 296
117 52 323 357
22 118 122 264
10 191 9 170
201 202 203 378
10 112 100 48
220 199 31 221
274 187 363 218
281 282 374 326
421 195 295 439
92 145 260 390
328 72 73 369
286 320 356 214
441 242 179 437
379 314 313 367
259 208 252 398
358 259 206 264
66 135 67 431
284 380 27 367
78 139 138 341
318 436 317 190
398 397 226 208
243 242 179 241
360 52 366 381
369 73 442 349
292 263 268 291
372 397 374 234
397 196 194 305
272 152 135 67
405 133 391 257
107 312 106 356
30 223 262 263
10 100 11 48
412 12 294 353
260 398 185 293
267 402 205 401
90 256 402 432
422 432 271 220
139 78 182 341
439 245 406 295
253 257 352 217
417 106 215 62
49 43 413 93
437 179 178 181
158 376 42 406
402 179 205 197
194 350 439 184
75 19 76 233
263 262 258 223
323 117 246 216
393 188 189 363
94 325 324 77
185 184 253 261
345 442 230 97
387 102 389 365
44 364 416 415
251 252 203 212
249 267 203 378
131 341 132 221
7 42 355 116
260 261 253 201
1 271 423 56
265 283 435 231
275 408 276 282
42 376 7 355
149 9 317 3
277 95 344 202
192 333 274 191
412 250 216 418
67 299 272 152
227 144 232 293
270 52 357 323
267 319 435 265
364 332 72 416
306 267 441 248
250 65 294 12
334 38 213 389
110 303 325 111
180 331 402 179
276 264 224 400
290 414 309 315
425 249 344 378
77 94 78 324
335 202 344 203
259 212 252 208
75 233 76 185
330 44 364 71
159 177 152 228
353 322 354 210
258 208 209 259
99 89 392 297
385 327 352 372
78 34 182 94
322 115 117 216
398 259 275 403
104 129 128 124
292 268 263 258
393 221 219 341
264 304 400 21
423 219 269 422
303 302 325 273
375 228 135 272
371 59 57 229
2 145 403 401
322 353 150 412
4 189 317 148
77 273 113 111
18 434 130 234
169 127 160 399
279 343 92 390
217 357 117 246
442 28 230 97
215 210 107 214
350 186 184 351
248 267 249 365
86 85 336 420
105 74 91 279
304 224 298 225
199 4 221 189
277 200 335 338
20 18 19 193
28 26 230 97
91 105 279 124
153 175 244 391
428 344 411 277
181 413 364 44
28 73 97 442
276 326 282 431
424 387 204 428
227 82 373 310
437 179 181 243
335 344 334 251
239 372 370 238
49 413 287 288
93 269 35 182
138 176 429 148
270 247 357 52
422 220 271 423
441 381 248 265
223 215 291 62
152 135 134 228
107 322 150 115
201 279 260 261
321 301 98 257
302 393 362 324
400 298 404 304
352 294 339 353
108 109 133 257
205 259 440 206
232 384 194 233
210 353 236 354
133 128 108 337
49 43 414 413
137 176 218 79
275 208 226 374
219 182 341 132
392 13 99 327
258 268 236 292
378 344 425 202
31 180 198 432
383 365 430 306
32 33 101 60
302 329 181 188
64 151 354 237
246 217 357 213
0 31 402 205
364 437 332 416
6 427 57 7
85 86 336 108
267 212 252 259
70 45 71 416
298 326 224 400
89 295 58 175
419 152 300 63
0 169 161 403
41 350 351 186
254 96 255 256
424 204 387 365
96 95 424 23
117 322 107 115
18 355 167 157
76 232 144 293
82 226 280 127
124 200 277 338
417 438 395 119
338 108 337 342
35 55 271 331
441 265 267 242
234 130 235 310
303 302 329 330
60 11 100 32
207 211 212 251
386 27 367 368
323 107 312 51
274 77 113 218
222 225 224 304
276 400 431 408
238 151 370 177
241 345 240 346
232 233 194 185
129 154 168 125
427 8 136 58
294 250 353 352
378 267 401 402
347 348 349 190
207 251 252 253
4 5 3 436
187 274 191 113
238 99 370 151
279 183 343 390
122 358 143 88
75 343 233 185
436 348 190 188
419 152 272 299
408 264 409 16
254 96 256 377
437 332 181 364
243 369 332 240
259 435 358 206
228 134 310 375
284 51 314 312
319 320 311 379
357 217 38 213
362 219 422 269
234 372 229 228
250 394 321 352
336 108 321 85
353 354 151 327
401 92 260 91
223 222 417 438
434 18 355 193
234 235 374 310
264 304 224 400
345 143 346 266
217 250 216 155
336 108 257 321
325 44 330 110
228 134 234 310
427 136 6 142
45 416 309 415
214 209 246 379
228 159 157 134
409 408 17 68
360 28 52 27
420 25 388 140
124 279 278 183
306 437 289 309
236 210 354 237
285 284 368 367
63 152 177 419
374 235 234 397
234 372 228 239
208 258 374 275
295 164 175 89
373 431 135 66
103 389 37 102
405 245 421 391
306 307 424 308
152 63 69 300
317 433 316 429
402 267 205 179
280 399 226 282
335 202 277 344
246 247 248 249
401 203 267 378
340 419 239 281
388 334 37 420
78 77 341 79
307 254 96 290
431 375 135 272
193 384 18 19
433 189 341 429
280 160 408 68
242 386 265 368
316 218 137 176
283 284 120 26
355 58 427 57
414 162 290 309
220 432 1 31
369 328 442 73
52 103 366 247
377 95 123 202
108 277 140 410
326 263 340 262
351 41 114 40
419 152 228 272
57 58 59 371
167 7 57 355
401 91 202 256
415 45 43 414
185 397 305 398
3 4 317 149
244 153 245 42
402 378 306 289
112 191 318 48
117 246 357 323
370 229 228 157
183 186 351 184
391 244 153 245
69 62 30 382
211 334 212 251
242 240 386 346
22 21 29 304
295 89 297 339
277 428 95 140
319 396 222 283
317 3 347 436
195 196 234 434
302 330 325 93
224 223 262 225
182 93 269 362
397 208 236 374
127 160 280 126
196 195 234 397
186 114 41 128
416 361 70 81
362 198 422 220
201 401 260 91
425 249 378 365
84 126 373 66
68 160 126 280
240 241 242 243
380 270 52 381
250 12 294 412
196 18 234 434
88 358 264 122
373 227 310 374
421 195 397 372
382 63 300 69
241 242 179 266
155 115 412 216
438 223 225 119
241 240 242 346
230 368 231 121
37 321 336 38
149 48 163 147
331 287 288 271
2 169 0 403
90 1 55 432
436 347 5 3
238 354 151 237
321 37 85 39
94 44 325 110
295 297 195 372
25 420 388 37
394 98 294 65
42 40 41 407
319 222 358 283
334 213 211 212
279 343 105 74
236 237 238 239
51 106 312 120
237 239 236 292
238 99 392 370
188 436 199 189
35 269 36 182
402 205 31 197
268 222 223 258
238 327 354 236
224 258 222 276
160 408 68 161
368 26 283 121
377 289 424 378
65 165 321 109
289 307 306 309
189 433 317 429
253 194 185 397
324 219 362 182
293 305 226 398
226 398 305 397
427 376 7 8
44 181 413 93
38 357 213 247
381 265 441 386
376 427 7 355
345 347 143 5
365 424 306 378
395 286 120 396
273 325 111 77
196 234 18 235
315 290 178 309
360 383 361 441
129 140 154 86
123 256 90 96
228 157 159 370
190 187 191 318
3 4 436 317
345 240 346 230
263 382 340 262
384 193 407 19
188 198 199 197
327 339 13 14
91 124 279 200
281 280 282 431
222 258 209 259
297 58 371 99
84 82 310 373
178 315 181 288
184 405 253 261
355 157 57 167
259 208 398 275
39 321 250 65
226 305 227 374
16 122 88 264
287 50 414 49
121 283 358 118
59 157 57 229
338 342 277 108
53 47 46 54
28 332 360 70
214 246 209 210
168 154 129 140
283 319 265 435
2 91 401 90
264 408 400 276
376 406 195 355
277 95 168 140
285 313 319 286
259 379 208 209
344 251 203 249
24 204 424 430
326 239 281 340
237 62 64 63
15 21 264 409
372 229 195 234
212 207 208 379
234 374 372 239
334 249 213 212
420 85 336 37
330 110 44 71
346 231 266 143
375 431 373 281
36 34 182 139
86 154 87 141
282 226 398 399
321 98 301 394
273 302 325 324
232 19 233 76
437 332 416 361
319 311 320 286
226 374 397 305
333 190 9 349
70 28 52 360
201 200 279 261
242 240 332 386
282 403 399 398
87 37 85 420
390 76 92 145
269 181 93 49
55 50 255 331
184 253 405 421
365 424 430 306
259 398 260 403
401 403 259 260
239 258 326 374
137 77 218 113
143 88 358 231
308 80 416 309
358 118 222 264
401 378 402 256
76 343 75 185
279 201 260 91
181 179 180 243
135 375 373 84
182 324 341 78
138 131 341 132
143 230 231 121
399 282 280 408
246 216 210 214
43 414 413 415
133 108 257 405
168 174 154 141
64 151 237 63
283 396 118 120
193 384 439 194
181 302 362 93
85 39 165 321
385 217 210 246
65 321 98 109
198 422 432 180
235 196 305 232
437 416 383 361
121 283 231 358
437 332 441 242
39 65 250 12
294 301 98 394
268 236 208 258
227 145 144 293
207 213 217 246
258 259 222 276
339 421 295 301
414 162 45 43
21 404 67 29
362 393 188 198
340 262 299 326
228 157 229 134
145 227 226 293
163 47 54 46
116 355 167 18
30 262 223 225
318 189 190 187
214 209 379 320
412 216 353 418
359 103 366 360
402 432 180 31
361 81 24 103
77 341 79 218
168 174 125 154
249 387 389 365
146 423 1 132
157 59 370 229
421 352 372 253
69 62 382 63
105 75 343 233
390 260 92 279
292 340 237 239
345 241 240 243
208 207 212 252
264 22 15 122
265 367 319 285
265 266 242 231
124 279 200 338
10 11 9 48
301 339 14 89
145 127 226 227
291 210 62 215
139 132 138 341
256 290 289 331
211 342 257 336
219 220 221 393
243 198 197 180
409 17 21 68
118 120 26 283
376 295 406 158
206 88 358 264
426 217 211 213
401 377 378 256
14 164 295 89
127 226 227 82
195 434 229 355
240 442 345 369
134 135 84 375
122 121 143 358
358 319 283 435
227 144 127 82
306 437 441 179
300 340 419 63
110 303 330 325
399 408 280 160
42 116 20 406
108 86 410 140
221 189 131 341
278 337 338 124
222 223 224 225
334 388 387 344
398 226 282 275
440 16 205 206
81 24 80 308
62 107 106 215
306 441 267 179
281 375 272 228
380 323 314 51
62 382 210 291
232 196 305 194
31 180 402 197
280 373 226 82
225 304 29 298
220 31 132 221
296 376 8 295
339 14 89 13
242 179 437 243
196 193 18 434
83 235 82 144
252 207 253 208
83 144 18 235
257 217 321 352
327 339 353 352
381 380 367 27
124 129 128 108
372 253 208 397
340 237 382 292
213 207 212 246
219 220 132 221
222 438 396 356
166 175 153 391
362 422 181 269
312 314 284 313
361 308 416 383
328 332 386 28
217 250 418 216
55 331 432 271
217 418 210 216
38 52 357 247
24 361 430 308
131 189 148 429
214 107 215 356
104 337 278 124
110 111 172 303
72 71 172 303
248 270 381 366
257 391 421 301
59 99 159 370
50 290 96 255
227 82 235 144
305 293 232 185
365 387 425 249
71 72 364 329
220 432 271 1
92 279 91 74
327 372 238 392
217 216 38 155
33 60 61 101
357 247 270 246
234 195 434 229
434 229 157 130
193 439 195 194
225 22 304 222
262 29 300 298
245 350 407 41
113 192 274 191
237 210 382 292
385 210 207 246
375 228 134 135
81 80 45 416
248 247 365 249
145 293 398 260
303 190 274 333
402 306 267 179
188 189 199 393
265 231 242 368
222 215 223 417
116 193 18 20
442 349 97 347
205 401 402 2
275 208 258 259
432 55 271 1
424 307 96 80
423 422 220 219
346 266 242 241
334 335 211 336
137 77 79 218
311 313 286 319
295 421 372 195
190 191 187 274
225 29 304 22
337 186 261 405
263 30 382 69
341 218 77 363
391 164 175 295
214 107 356 312
155 39 38 250
169 408 160 161
426 336 38 334
223 215 268 291
392 13 89 99
263 326 258 262
344 428 425 95
320 379 319 259
212 251 249 203
140 420 277 411
146 36 56 423
282 431 326 281
181 332 437 243
68 67 21 431
118 120 395 119
108 277 410 342
353 418 216 210
209 268 222 215
256 255 55 96
38 216 217 117
278 186 104 183
212 249 267 203
56 35 271 269
226 82 373 227
441 386 332 360
96 80 23 424
326 298 262 299
351 184 233 183
392 339 89 13
276 431 282 408
244 245 391 295
363 188 274 273
63 177 238 419
86 108 410 336
402 401 256 90
332 243 329 369
431 67 400 299
267 259 401 205
281 374 375 228
243 332 437 242
318 316 187 147
277 140 129 108
371 296 297 195
6 8 136 427
431 375 272 281
251 207 252 212
166 133 257 391
170 303 192 333
214 215 210 209
248 246 314 270
44 71 45 416
12 339 14 294
56 35 55 271
39 155 12 250
50 49 287 35
234 229 130 134
215 214 320 209
343 185 390 183
121 231 143 358
408 400 21 264
272 281 299 431
259 403 205 440
249 247 389 213
440 275 408 276
372 392 297 371
202 123 377 256
320 209 379 259
408 431 68 21
226 374 281 282
186 184 185 261
352 339 421 372
117 107 323 51
304 29 404 21
178 331 290 288
423 146 1 56
99 177 159 370
243 181 332 329
211 207 212 213
324 94 78 182
104 114 75 351
330 110 71 303
222 118 358 283
124 200 91 123
289 437 179 178
210 353 385 236
245 153 391 133
187 316 433 218
64 354 151 150
301 14 164 295
41 153 245 133
280 373 68 431
368 386 230 346
285 286 319 283
150 64 354 107
31 199 5 4
126 373 280 82
368 121 230 26
321 37 336 85
250 39 38 321
318 436 189 317
267 248 265 441
222 118 283 396
150 353 12 412
362 181 422 198
93 362 181 269
255 290 331 50
207 208 209 210
264 206 88 16
49 288 271 269
113 192 191 10
141 140 25 420
368 283 265 231
224 258 326 262
204 102 365 103
233 184 194 185
317 189 318 433
286 312 395 120
38 216 117 115
393 363 341 324
320 215 356 214
420 141 87 25
265 381 367 386
161 403 169 408
421 405 439 245
1 132 423 220
344 411 335 334
421 257 405 391
440 205 161 403
215 320 222 209
226 280 281 373
326 400 298 299
65 294 394 250
55 90 256 96
186 183 390 185
88 266 5 205
205 206 16 88
302 181 330 93
198 31 197 180
296 8 427 58
438 395 356 417
339 89 297 392
263 223 291 30
400 408 21 431
75 114 19 351
55 256 90 432
439 406 193 195
52 27 51 380
408 16 440 264
340 239 419 238
311 246 379 214
267 212 259 379
441 360 366 381
372 229 228 370
389 388 334 37
438 222 118 22
242 267 441 179
317 9 149 147
234 229 134 228
314 270 323 380
208 253 372 385
283 284 368 285
350 384 233 194
387 388 389 102
291 210 268 236
24 102 25 204
56 36 35 269
275 282 398 403
346 240 386 230
361 437 441 383
290 307 289 309
211 257 342 261
341 132 182 139
239 238 370 419
181 243 198 188
67 400 404 21
95 425 202 377
332 70 416 361
346 242 266 231
344 203 202 378
401 2 90 402
320 356 215 222
16 408 161 17
425 424 378 377
202 377 401 256
265 283 285 319
355 57 157 229
300 69 29 262
237 210 354 62
411 277 140 428
261 186 337 278
339 421 301 352
230 28 328 386
181 329 302 330
200 201 202 203
172 10 170 192
436 345 348 188
323 107 214 312
36 423 146 132
399 169 127 226
104 125 129 124
16 264 409 15
12 327 353 151
354 327 353 236
400 298 304 224
368 231 346 230
269 271 56 423
210 107 214 322
398 208 226 275
31 197 205 5
188 303 369 349
406 193 355 116
261 390 186 279
202 200 91 201
50 43 414 49
34 94 93 182
249 334 251 212
229 234 130 434
406 355 376 42
217 246 216 210
410 420 336 411
148 189 131 4
73 28 72 328
197 198 199 31
230 97 26 121
229 195 355 371
96 50 162 290
413 315 181 364
312 323 314 311
276 258 374 326
241 266 197 345
229 195 371 372
346 231 143 230
238 177 370 419
441 381 386 360
190 333 303 349
279 343 74 92
302 393 324 273
72 71 416 70
268 210 208 236
385 217 418 210
181 362 302 188
393 273 302 188
144 19 18 232
104 351 105 183
285 319 313 379
73 72 172 303
80 81 308 416
29 298 304 404
334 211 335 251
385 327 372 236
238 327 99 151
193 194 195 196
307 308 80 424
387 102 204 428
158 42 153 244
38 37 103 389
186 104 337 278
257 253 352 421
27 51 380 284
295 296 297 58
404 304 21 400
433 429 341 218
191 10 48 112
283 368 284 26
254 424 289 307
147 9 48 318
119 30 225 22
259 435 319 358
401 267 252 259
325 93 330 44
187 188 363 189
370 371 229 59
302 362 393 188
442 347 348 349
266 197 5 205
147 318 48 112
224 264 276 222
419 228 152 177
233 19 384 350
258 239 326 292
191 10 192 170
385 353 352 327
12 115 150 412
365 204 103 359
307 308 309 80
397 195 421 194
271 288 422 269
7 8 6 427
412 155 216 250
364 181 437 178
396 286 120 283
304 21 264 22
188 349 369 348
224 326 258 276
305 227 232 293
185 233 183 343
215 107 210 62
236 385 210 208
339 12 353 294
407 439 406 193
439 407 384 193
355 406 116 42
356 286 312 395
130 310 84 83
205 401 2 403
288 331 422 178
372 339 297 392
211 217 253 207
273 324 325 77
187 188 189 190
267 259 435 319
289 437 306 179
260 398 145 403
369 442 348 349
405 184 186 261
96 95 123 377
356 214 312 286
195 434 193 196
94 325 77 111
97 73 170 349
187 433 341 218
201 279 200 91
193 194 196 384
332 416 70 72
154 168 141 140
55 256 432 331
140 95 25 428
119 30 62 223
187 188 190 274
213 334 211 426
255 331 256 55
86 87 85 420
70 81 45 416
354 322 353 150
267 252 212 203
319 396 283 286
162 80 309 45
201 203 200 251
183 184 185 186
239 238 340 237
365 204 359 430
384 18 19 232
28 73 442 328
29 30 262 69
315 413 288 287
230 328 28 442
334 388 389 387
105 124 104 183
9 347 190 317
145 92 401 2
96 424 95 377
426 321 211 217
442 240 328 369
196 193 384 18
420 388 411 140
406 295 195 439
181 364 329 330
43 44 45 415
415 309 364 416
365 441 366 248
218 429 79 176
187 316 318 433
340 239 292 326
378 267 365 249
111 303 273 192
359 366 365 383
216 322 323 117
34 35 36 182
107 322 210 354
201 203 401 378
290 414 315 287
211 426 336 321
49 413 288 181
222 438 225 22
415 413 44 364
36 269 423 182
51 117 52 323
52 103 247 38
44 43 93 413
208 253 385 207
235 18 130 234
306 441 365 248
293 76 185 343
405 337 342 261
376 427 296 8
227 232 235 305
178 181 315 364
340 382 263 292
145 144 127 227
189 341 393 363
436 345 347 348
324 341 393 219
8 295 175 58
386 367 27 381
284 312 286 120
38 39 37 321
178 179 180 181
209 268 258 222
102 204 365 387
32 11 100 48
245 439 350 405
324 273 363 77
121 283 368 231
397 372 374 236
199 197 31 5
215 291 210 268
415 45 414 309
230 97 121 143
363 77 341 324
221 393 199 189
293 185 390 343
76 343 390 92
214 320 379 311
101 60 61 100
245 407 406 42
306 424 307 289
239 292 258 236
311 246 314 379
431 135 375 373
380 314 270 381
77 273 363 274
208 397 253 398
418 385 352 217
133 109 166 257
130 310 134 84
59 371 99 370
192 303 170 172
230 328 442 240
105 351 75 233
431 326 400 276
314 381 367 248
227 232 144 235
347 5 345 436
151 13 327 99
180 432 402 331
439 405 421 184
336 38 334 37
353 412 250 294
345 143 97 230
123 256 96 377
321 301 257 352
217 321 250 38
261 201 200 251
1 220 423 271
295 175 158 8
88 266 231 143
349 303 73 170
393 219 220 362
261 405 257 342
418 250 352 353
105 183 233 343
382 62 210 237
319 320 259 222
337 104 186 128
379 249 248 267
410 86 336 420
123 168 124 277
365 247 389 249
94 93 182 362
13 151 327 12
233 350 351 19
360 52 381 27
396 395 356 438
276 259 222 264
124 168 129 277
108 405 133 337
162 50 414 290
222 223 258 224
196 235 397 234
419 299 281 340
259 379 319 267
188 349 190 303
402 331 256 289
219 269 182 423
292 263 291 382
287 35 49 271
382 210 291 292
201 251 261 253
381 360 27 386
52 380 381 27
147 316 317 318
253 217 385 207
255 331 290 256
218 113 274 187
427 6 57 142
107 322 117 323
178 437 364 309
293 145 390 260
264 259 440 276
131 132 4 221
109 98 257 321
148 176 429 317
371 58 355 57
420 87 37 25
269 422 271 423
400 299 67 404
192 172 10 113
353 12 151 150
337 342 261 338
381 380 314 367
171 37 39 85
436 348 347 190
295 245 391 421
437 383 306 441
363 77 274 218
116 18 193 355
384 19 233 232
187 363 341 189
178 288 290 315
244 175 158 295
342 410 108 336
183 105 124 279
98 294 14 301
2 0 1 402
119 118 22 438
284 51 26 27
335 342 261 211
189 341 187 433
183 279 343 105
210 246 209 207
309 364 178 315
217 257 321 211
194 350 384 439
29 67 152 300
341 79 218 429
297 296 371 58
227 305 226 293
16 440 161 408
364 330 71 329
424 80 23 24
202 123 277 95
268 263 258 223
276 326 400 224
289 424 378 306
119 62 417 223
267 367 379 319
311 312 313 314
